STARTFONT 2.3
FONT -FontForge-Courgette-Book-R-Normal--14-140-72-72-P-73-ISO10646-1
SIZE 14 72 72  4
FONTBOUNDINGBOX 19 19 -3 -5
COMMENT "Generated by fontforge, http://fontforge.sourceforge.net"
COMMENT "Copyright (c) 2012, Sorkin Type Co (www.sorkintype.com) with Reserved Font Name "Courgette"."
STARTPROPERTIES 41
FOUNDRY "FontForge"
FAMILY_NAME "Courgette"
WEIGHT_NAME "Book"
SLANT "R"
SETWIDTH_NAME "Normal"
ADD_STYLE_NAME ""
PIXEL_SIZE 14
POINT_SIZE 140
RESOLUTION_X 72
RESOLUTION_Y 72
SPACING "P"
AVERAGE_WIDTH 73
CHARSET_REGISTRY "ISO10646"
CHARSET_ENCODING "1"
FONTNAME_REGISTRY ""
CHARSET_COLLECTIONS "ISO8859-2 ISO8859-9 ISO8859-4 ISO10646-1"
BITS_PER_PIXEL 4
FONT_NAME "Courgette-Regular"
FACE_NAME "Courgette Regular"
COPYRIGHT "Copyright (c) 2012, Sorkin Type Co (www.sorkintype.com) with Reserved Font Name "Courgette"."
FONT_VERSION "1.002"
FONT_ASCENT 11
FONT_DESCENT 3
UNDERLINE_POSITION -1
UNDERLINE_THICKNESS 1
X_HEIGHT 6
CAP_HEIGHT 10
DEFAULT_CHAR 1
RAW_ASCENT 799
RAW_DESCENT 200
NORM_SPACE 4
RELATIVE_WEIGHT 40
RELATIVE_SETWIDTH 50
SUPERSCRIPT_X 0
SUPERSCRIPT_Y 6
SUPERSCRIPT_SIZE 9
SUBSCRIPT_X 0
SUBSCRIPT_Y 1
SUBSCRIPT_SIZE 9
AVG_LOWERCASE_WIDTH 71
AVG_UPPERCASE_WIDTH 82
ENDPROPERTIES
CHARS 407
STARTCHAR .null.dup1
ENCODING 0
SWIDTH 0 0
DWIDTH 0 0
BBX 1 1 0 0
BITMAP
00
ENDCHAR
STARTCHAR uni0001
ENCODING 1
SWIDTH 0 0
DWIDTH 0 0
BBX 1 1 0 0
BITMAP
00
ENDCHAR
STARTCHAR uni0002
ENCODING 2
SWIDTH 0 0
DWIDTH 0 0
BBX 1 1 0 0
BITMAP
00
ENDCHAR
STARTCHAR uni0003
ENCODING 3
SWIDTH 0 0
DWIDTH 0 0
BBX 1 1 0 0
BITMAP
00
ENDCHAR
STARTCHAR uni0004
ENCODING 4
SWIDTH 0 0
DWIDTH 0 0
BBX 1 1 0 0
BITMAP
00
ENDCHAR
STARTCHAR uni0005
ENCODING 5
SWIDTH 0 0
DWIDTH 0 0
BBX 1 1 0 0
BITMAP
00
ENDCHAR
STARTCHAR uni0006
ENCODING 6
SWIDTH 0 0
DWIDTH 0 0
BBX 1 1 0 0
BITMAP
00
ENDCHAR
STARTCHAR uni0007
ENCODING 7
SWIDTH 0 0
DWIDTH 0 0
BBX 1 1 0 0
BITMAP
00
ENDCHAR
STARTCHAR uni0008
ENCODING 8
SWIDTH 0 0
DWIDTH 0 0
BBX 1 1 0 0
BITMAP
00
ENDCHAR
STARTCHAR uni0009
ENCODING 9
SWIDTH 0 0
DWIDTH 0 0
BBX 1 1 0 0
BITMAP
00
ENDCHAR
STARTCHAR nonmarkingreturn
ENCODING 13
SWIDTH 0 0
DWIDTH 0 0
BBX 1 1 0 0
BITMAP
00
ENDCHAR
STARTCHAR uni0015
ENCODING 21
SWIDTH 0 0
DWIDTH 0 0
BBX 1 1 0 0
BITMAP
00
ENDCHAR
STARTCHAR uni0016
ENCODING 22
SWIDTH 0 0
DWIDTH 0 0
BBX 1 1 0 0
BITMAP
00
ENDCHAR
STARTCHAR uni0017
ENCODING 23
SWIDTH 0 0
DWIDTH 0 0
BBX 1 1 0 0
BITMAP
00
ENDCHAR
STARTCHAR uni0018
ENCODING 24
SWIDTH 0 0
DWIDTH 0 0
BBX 1 1 0 0
BITMAP
00
ENDCHAR
STARTCHAR uni0019
ENCODING 25
SWIDTH 0 0
DWIDTH 0 0
BBX 1 1 0 0
BITMAP
00
ENDCHAR
STARTCHAR space
ENCODING 32
SWIDTH 307 0
DWIDTH 4 0
BBX 1 1 0 0
BITMAP
00
ENDCHAR
STARTCHAR exclam
ENCODING 33
SWIDTH 417 0
DWIDTH 6 0
BBX 6 11 1 0
BITMAP
0006E4
002FB0
009F30
01EA00
05F300
08C000
0A5000
080000
461000
DF4000
470000
ENDCHAR
STARTCHAR quotedbl
ENCODING 34
SWIDTH 437 0
DWIDTH 6 0
BBX 6 4 2 8
BITMAP
171271
BD1DC1
F42F30
A02900
ENDCHAR
STARTCHAR numbersign
ENCODING 35
SWIDTH 725 0
DWIDTH 10 0
BBX 10 11 0 0
BITMAP
00000880C4
00001F45E1
00005E09A0
0000A90E50
02BCFCDEC9
0005C09800
000890C500
1BCECCECA0
004C088000
00870C3000
00B21B0000
ENDCHAR
STARTCHAR dollar
ENCODING 36
SWIDTH 545 0
DWIDTH 8 0
BBX 9 15 0 -2
BITMAP
0000001600
0000009900
0002ADE500
001D703E00
009D004F20
00DA00CE00
00EC07F700
00BF513000
003FD10000
0007F60000
0D20D80000
2F40D40000
09EC600000
04B0000000
0760000000
ENDCHAR
STARTCHAR percent
ENCODING 37
SWIDTH 876 0
DWIDTH 12 0
BBX 11 11 1 0
BITMAP
05DD40008900
3F48B006E200
BB0AB03F4000
E70E81D70000
C67E2BA00000
4CB39D100000
0005E219C800
003E40CA2F30
01D705F14F20
0BA006D0CB00
5B0001CDA100
ENDCHAR
STARTCHAR ampersand
ENCODING 38
SWIDTH 563 0
DWIDTH 8 0
BBX 8 11 0 0
BITMAP
0005CCC4
008F503D
03F700AD
08F10BF6
06E11550
00CFE000
09F81001
3F80BFB7
7F103E00
6F309800
09DC7000
ENDCHAR
STARTCHAR quotesingle
ENCODING 39
SWIDTH 231 0
DWIDTH 3 0
BBX 3 4 2 8
BITMAP
1710
BD10
F400
A000
ENDCHAR
STARTCHAR parenleft
ENCODING 40
SWIDTH 478 0
DWIDTH 7 0
BBX 8 16 1 -3
BITMAP
000003B3
00006D20
0005E200
002E5000
00BB0000
03F30000
0AC00000
0E800000
3F400000
5F200000
7F100000
6F100000
3F300000
0E700000
07D00000
00A80000
ENDCHAR
STARTCHAR parenright
ENCODING 41
SWIDTH 478 0
DWIDTH 7 0
BBX 8 16 -2 -3
BITMAP
00007A10
00000C80
000006E1
000002F4
000001F7
000000F8
000001F6
000003F4
000006F1
00000BB0
00002F40
0000AC00
0005F200
002E5000
02D60000
3B400000
ENDCHAR
STARTCHAR asterisk
ENCODING 42
SWIDTH 518 0
DWIDTH 7 0
BBX 5 5 2 6
BITMAP
00CA00
B4F550
5EEC90
5CD400
914B00
ENDCHAR
STARTCHAR plus
ENCODING 43
SWIDTH 617 0
DWIDTH 9 0
BBX 7 7 1 2
BITMAP
001C0000
001D0000
001D0000
ACCFCC80
001D0000
001D0000
001B0000
ENDCHAR
STARTCHAR comma
ENCODING 44
SWIDTH 312 0
DWIDTH 4 0
BBX 3 4 0 -2
BITMAP
3E60
1F80
2E30
A400
ENDCHAR
STARTCHAR hyphen
ENCODING 45
SWIDTH 452 0
DWIDTH 6 0
BBX 5 1 1 4
BITMAP
7CCB20
ENDCHAR
STARTCHAR period
ENCODING 46
SWIDTH 270 0
DWIDTH 4 0
BBX 3 3 0 -1
BITMAP
7E60
7F50
0100
ENDCHAR
STARTCHAR slash
ENCODING 47
SWIDTH 405 0
DWIDTH 6 0
BBX 9 15 -1 -2
BITMAP
0000000060
00000008B0
0000003F30
000000B900
000005E100
00000D7000
00007D0000
0001E40000
0009B00000
003F200000
00B8000000
05E1000000
0D60000000
7C00000000
D300000000
ENDCHAR
STARTCHAR zero
ENCODING 48
SWIDTH 621 0
DWIDTH 9 0
BBX 9 11 0 0
BITMAP
00004BCC20
0005E40A80
003E700AB0
00BD000CA0
03F6001F80
08E1005F40
0DA000BD00
0F7003F600
1F500CC000
0E509E2000
05DDA20000
ENDCHAR
STARTCHAR one
ENCODING 49
SWIDTH 405 0
DWIDTH 6 0
BBX 5 11 1 0
BITMAP
003D70
06EF90
2B7F60
005F20
00AC00
01E600
05E100
0B9000
2F2000
880000
A10000
ENDCHAR
STARTCHAR two
ENCODING 50
SWIDTH 524 0
DWIDTH 7 0
BBX 8 11 0 0
BITMAP
0007DD80
008D11E4
01E800E6
01FA05F5
00862EE1
0001DF50
001CF700
01CF7000
0BF60000
6F500110
BDBCCC20
ENDCHAR
STARTCHAR three
ENCODING 51
SWIDTH 537 0
DWIDTH 8 0
BBX 8 11 0 0
BITMAP
0006CCB1
007E20C8
00E800CA
01FC02F8
00531CE1
0007EE30
000BE800
00007F00
2E509E00
6F03F600
1BDD6000
ENDCHAR
STARTCHAR four
ENCODING 52
SWIDTH 529 0
DWIDTH 7 0
BBX 8 11 0 0
BITMAP
000D5000
002F8000
006F4000
00CD0490
04F708F1
0BD10CC0
2F502F60
0ACCEFC2
0001E600
0008B000
001C1000
ENDCHAR
STARTCHAR five
ENCODING 53
SWIDTH 540 0
DWIDTH 8 0
BBX 9 11 0 0
BITMAP
0007EA9C60
000D99DC20
003F200000
00AB000000
02FDCD3000
04D20CB000
00000BD000
03100EA000
5F206F4000
7D03E80000
1BDC600000
ENDCHAR
STARTCHAR six
ENCODING 54
SWIDTH 554 0
DWIDTH 8 0
BBX 7 11 1 0
BITMAP
0006DD80
009E23F0
06F41DC0
1EB00620
6F400000
BE6BC400
EF808E00
FC007F00
F800CC00
B807F300
2CCB3000
ENDCHAR
STARTCHAR seven
ENCODING 55
SWIDTH 473 0
DWIDTH 7 0
BBX 7 11 1 0
BITMAP
3A105D60
0ADB9D90
00006E10
0003F400
001D9000
009D1000
03F50000
0BC00000
3F600000
6F200000
4D000000
ENDCHAR
STARTCHAR eight
ENCODING 56
SWIDTH 524 0
DWIDTH 7 0
BBX 8 11 0 0
BITMAP
0005DEA1
004E34F8
00A800DA
00CA00E8
009E17E1
003FDC20
007FF300
0BA2D900
4F207B00
3F409700
08DB8000
ENDCHAR
STARTCHAR nine
ENCODING 57
SWIDTH 554 0
DWIDTH 8 0
BBX 8 11 0 0
BITMAP
0004CCB1
005F40C8
01E800BB
05F300EA
07F104F8
05F32DF4
009CAAE1
00000C90
09305E10
4F22D400
1BCB3000
ENDCHAR
STARTCHAR colon
ENCODING 58
SWIDTH 312 0
DWIDTH 4 0
BBX 4 8 0 -1
BITMAP
0173
06FA
0182
0000
0000
5E70
6F60
0100
ENDCHAR
STARTCHAR semicolon
ENCODING 59
SWIDTH 312 0
DWIDTH 4 0
BBX 4 9 0 -2
BITMAP
0173
06FB
0183
0000
0000
3E60
1F80
2E30
A400
ENDCHAR
STARTCHAR less
ENCODING 60
SWIDTH 637 0
DWIDTH 9 0
BBX 7 7 1 1
BITMAP
000017B0
0006D910
06DA2000
CF500000
29E71000
0029D600
00002AB0
ENDCHAR
STARTCHAR equal
ENCODING 61
SWIDTH 617 0
DWIDTH 9 0
BBX 7 3 1 4
BITMAP
8CCCCCA0
00000000
9CCCCC90
ENDCHAR
STARTCHAR greater
ENCODING 62
SWIDTH 606 0
DWIDTH 8 0
BBX 7 7 1 1
BITMAP
B9200000
07E92000
0018E910
00005FC0
002AD600
19D60000
C7100000
ENDCHAR
STARTCHAR question
ENCODING 63
SWIDTH 516 0
DWIDTH 7 0
BBX 7 11 1 0
BITMAP
003CCA10
01E70B70
03F50C80
01828F40
001AF800
00BF6000
07E40000
0A500000
02000000
BF300000
AD200000
ENDCHAR
STARTCHAR at
ENCODING 64
SWIDTH 905 0
DWIDTH 13 0
BBX 13 11 0 -2
BITMAP
000017BCCB5000
0006B51003CA00
008904BB891F30
05D05E34F70C60
0D60D806E10D40
2F23F30D904D00
4F14F38D63D300
4F30AC47CA2000
1E800000000000
05F71003100000
0029CBB7100000
ENDCHAR
STARTCHAR A
ENCODING 65
SWIDTH 615 0
DWIDTH 9 0
BBX 12 11 -2 0
BITMAP
000000005CE1
0000000AAAC0
000000991E60
000006C07F10
00002E20DA00
0003BEDFFF90
000AE339F300
000B700AD000
005E100DA000
02D7000D9000
1DA00007E900
ENDCHAR
STARTCHAR B
ENCODING 66
SWIDTH 551 0
DWIDTH 8 0
BBX 9 11 0 0
BITMAP
017CDCC500
0AD5005F20
013F501F50
00CF304F40
04FA01CD00
09F33CE300
0EFEEE2000
3F601CA000
5F100CB000
4E018F4000
0BEDA30000
ENDCHAR
STARTCHAR C
ENCODING 67
SWIDTH 533 0
DWIDTH 7 0
BBX 9 11 0 0
BITMAP
00005CCA10
0008E30B60
007F401E60
02E901CF20
08F204F600
0EB0000000
2F70000000
4F50000000
4F50000000
1E90194000
04DCD81000
ENDCHAR
STARTCHAR D
ENCODING 68
SWIDTH 630 0
DWIDTH 9 0
BBX 10 11 0 0
BITMAP
03ADCCB500
04B3003E50
001DA008D0
007F5007F1
00DC0009F0
04F6000DB0
0AE1005F50
0EA001DB00
3F501CD100
4F23CB2000
1BCC600000
ENDCHAR
STARTCHAR E
ENCODING 69
SWIDTH 509 0
DWIDTH 7 0
BBX 9 11 0 0
BITMAP
0002ADC900
004EA10E20
00DC00AE00
04F40AF500
05F1012000
01DA810000
02CF920000
1DE3000000
5F60040000
5F306E0000
09DDB30000
ENDCHAR
STARTCHAR F
ENCODING 70
SWIDTH 518 0
DWIDTH 7 0
BBX 9 11 0 0
BITMAP
07EB951170
2F50CCBC30
1D04F50000
0009F10000
000EC00000
02BFEC8000
01BF100000
00EA000000
05F4000000
1DA0000000
7B10000000
ENDCHAR
STARTCHAR G
ENCODING 71
SWIDTH 598 0
DWIDTH 8 0
BBX 9 11 0 0
BITMAP
00004CCA00
0007E40A60
006F500D80
02EA008F50
08F304FC00
0DC0018100
2F70021110
4F505FFE20
3F40099000
1E802C2000
04DCA30000
ENDCHAR
STARTCHAR H
ENCODING 72
SWIDTH 668 0
DWIDTH 9 0
BBX 11 11 -1 0
BITMAP
007DE60008A0
0011E9000CB0
0001F7001F80
0005F4004F30
0009F1009D00
007FFBBCFD20
005F5005F100
00AE000AB000
02F7001F6000
0BC0004F2000
5C20002EA200
ENDCHAR
STARTCHAR I
ENCODING 73
SWIDTH 327 0
DWIDTH 5 0
BBX 6 11 -1 0
BITMAP
005DD7
0002BD
0000DB
0002F7
0006F4
000AE0
001E90
006F30
00CB00
06E300
1E5000
ENDCHAR
STARTCHAR J
ENCODING 74
SWIDTH 393 0
DWIDTH 6 0
BBX 9 15 -3 -4
BITMAP
00003ADD80
0002FB1BE0
0000400DC0
0000002F80
0000007F40
000000BE00
000001FA00
000007F400
00000DD000
00005F6000
0000CD0000
0006F50000
002EA00000
02DB100000
3D81000000
ENDCHAR
STARTCHAR K
ENCODING 75
SWIDTH 616 0
DWIDTH 9 0
BBX 10 11 -1 0
BITMAP
00BDC200AB
0033F5009F
0005F400DC
0009F107F3
000DC06E40
002F88C200
007FDD1000
00DD3F7000
04F609F300
0CC001EC10
7C20004DC3
ENDCHAR
STARTCHAR L
ENCODING 76
SWIDTH 517 0
DWIDTH 7 0
BBX 9 11 -1 0
BITMAP
000005CC30
00005F34B0
0001E908C0
0007F25F80
000DC3FD10
003F606200
009E100000
00E9000000
05F2000000
1DA7ACA100
2EDA88B600
ENDCHAR
STARTCHAR M
ENCODING 77
SWIDTH 931 0
DWIDTH 13 0
BBX 16 11 -2 0
BITMAP
00000004CD001AE1
0000004DDB00CDD0
000002D4F6089D80
00000A87F12E4F40
00004E1BC0A79E00
0000C70E82D0DA00
0005D13F5962F600
000D604F4D06F200
008D006F9609E000
04F4006FC009E000
4E70003E3003EB30
ENDCHAR
STARTCHAR N
ENCODING 78
SWIDTH 708 0
DWIDTH 10 0
BBX 11 11 0 0
BITMAP
0001AE004E60
0009FD000EC0
004DBC000DB0
00B6BC001F60
03E1AD006E10
09909E00B800
0E507F23E100
4F104F697000
8C000EBD1000
A90009F80000
860001C40000
ENDCHAR
STARTCHAR O
ENCODING 79
SWIDTH 655 0
DWIDTH 9 0
BBX 10 11 0 0
BITMAP
00004BCD50
0006F604F2
004F7001F5
00DC0002F5
06F50005F3
0BE0000AE0
0F90002F90
2F50009E20
1F4004F700
0C803E8000
02BCC50000
ENDCHAR
STARTCHAR P
ENCODING 80
SWIDTH 553 0
DWIDTH 8 0
BBX 10 11 -1 0
BITMAP
0007CDCB50
007F7102F5
0012B700D9
0004F502F8
000AE11BE2
001EA4CE40
005FFD8200
00BD000000
03F7000000
0BC0000000
5D20000000
ENDCHAR
STARTCHAR Q
ENCODING 81
SWIDTH 655 0
DWIDTH 9 0
BBX 9 13 1 -2
BITMAP
0005CCC400
008E405E00
06F3003F30
1E80004F30
7F10008F10
BB0000EB00
DA0007F400
DC002E9000
7F31DB0000
034DA10000
1CFFA20000
0014BF8110
000005BDA0
ENDCHAR
STARTCHAR R
ENCODING 82
SWIDTH 623 0
DWIDTH 9 0
BBX 10 12 -1 -1
BITMAP
0007CDCB60
004E7101D6
0000CA00BB
0004F601E9
0009E11BE2
000EC7DD30
005FEF7100
00AE1DA000
02F706F400
0AD100DC10
4D20004EE3
0000000010
ENDCHAR
STARTCHAR S
ENCODING 83
SWIDTH 474 0
DWIDTH 7 0
BBX 8 11 0 0
BITMAP
0006DC91
008D20A7
02F600BA
06F304F7
06F50ED1
03FC0210
00AF7000
001DE000
5A06F100
9C05B000
3CCA1000
ENDCHAR
STARTCHAR T
ENCODING 84
SWIDTH 471 0
DWIDTH 7 0
BBX 8 11 1 0
BITMAP
5EBA6108
E808FBC5
D10EB000
003F7000
008F2000
00CD0000
01F80000
06F30000
0BC00000
4F400000
D7000000
ENDCHAR
STARTCHAR U
ENCODING 85
SWIDTH 624 0
DWIDTH 9 0
BBX 10 11 0 0
BITMAP
004E8000A8
000F9003F6
004F500AE1
00AE002F90
02F8009F40
08F202FE00
0DB00AFA00
4F503CF600
9E00B5F300
AD0836F100
5EA302DB30
ENDCHAR
STARTCHAR V
ENCODING 86
SWIDTH 587 0
DWIDTH 8 0
BBX 10 11 1 0
BITMAP
6DCA000CB0
135F3009F1
00DE100AE0
05F9003F70
0BF201CD10
2F900AE300
6F209E3000
AC07E30000
C96E200000
CCE2000000
5E30000000
ENDCHAR
STARTCHAR W
ENCODING 87
SWIDTH 941 0
DWIDTH 13 0
BBX 13 11 1 0
BITMAP
7DC70000002D90
227F1001101ED0
01ED004E900CE0
07F704FD100CC0
0DE13EF6000D90
4F80DEF1003F50
9F28BBC0008D00
DB3D1D9001E500
F7B40E700A9000
EA900D809A0000
8D1005DB600000
ENDCHAR
STARTCHAR X
ENCODING 88
SWIDTH 552 0
DWIDTH 8 0
BBX 11 11 -1 0
BITMAP
00007A003CB0
0000F903E900
0000F81D9000
0000F89B0000
0000DDE10000
0000BF400000
0001DF100000
000ADF400000
007C1EA00000
08E209F64000
7D3001BE6000
ENDCHAR
STARTCHAR Y
ENCODING 89
SWIDTH 580 0
DWIDTH 8 0
BBX 10 15 0 -4
BITMAP
004E7000B8
001F9003F5
005F400BD0
00BE003F80
02F800AF30
08F203FD00
0EA00AF700
5F404DF200
9E00B9C000
BC094E6000
5EA37D0000
0001E50000
000BA00000
00AC100000
2C91000000
ENDCHAR
STARTCHAR Z
ENCODING 90
SWIDTH 501 0
DWIDTH 7 0
BBX 10 11 -1 0
BITMAP
0039115BD2
001DFFCBF3
0001213E80
000002E900
00002DA000
0001CA0000
000BA00000
009B000000
05D1000000
1EAABCC200
1EB4005700
ENDCHAR
STARTCHAR bracketleft
ENCODING 91
SWIDTH 396 0
DWIDTH 6 0
BBX 8 15 0 -2
BITMAP
00001892
00008E30
0000D900
0004F300
0009D000
000E7000
004F2000
00AC0000
01E70000
05F20000
0BB00000
1F600000
6F100000
CB000000
CD700000
ENDCHAR
STARTCHAR backslash
ENCODING 92
SWIDTH 464 0
DWIDTH 7 0
BBX 6 15 0 -2
BITMAP
240000
3E0000
0E4000
0A7000
06B000
02F100
00E400
00A800
006C00
002F10
000D40
000980
0005C0
0001F1
0000A4
ENDCHAR
STARTCHAR bracketright
ENCODING 93
SWIDTH 394 0
DWIDTH 6 0
BBX 8 15 -1 -3
BITMAP
00002BD5
000003F4
000007E0
00000C90
00003F30
00008D00
0000D800
0003F300
0008D000
000D7000
003F2000
009C0000
00E70000
05F20000
6D900000
ENDCHAR
STARTCHAR asciicircum
ENCODING 94
SWIDTH 540 0
DWIDTH 8 0
BBX 7 6 1 5
BITMAP
002E2000
00AF9000
04F7F200
0C70A900
6B001E10
42000420
ENDCHAR
STARTCHAR underscore
ENCODING 95
SWIDTH 530 0
DWIDTH 7 0
BBX 10 1 -3 -2
BITMAP
1BCCCCCCC9
ENDCHAR
STARTCHAR grave
ENCODING 96
SWIDTH 219 0
DWIDTH 3 0
BBX 3 4 0 7
BITMAP
4E10
6F10
1E30
0230
ENDCHAR
STARTCHAR a
ENCODING 97
SWIDTH 541 0
DWIDTH 8 0
BBX 8 8 0 -1
BITMAP
002BC9D6
03E70BF2
0CB00EA0
4F505F40
7F10CE00
7F08CC10
1CC66FD0
00000310
ENDCHAR
STARTCHAR b
ENCODING 98
SWIDTH 525 0
DWIDTH 7 0
BBX 7 12 0 0
BITMAP
00060000
003F3000
006F1000
00AB0000
00E60000
04F6CE40
09EA0CB0
0ED10CC0
3F501F90
6E007F30
5D05F700
0AEC5000
ENDCHAR
STARTCHAR c
ENCODING 99
SWIDTH 465 0
DWIDTH 7 0
BBX 7 7 0 0
BITMAP
003BCC10
04E70E50
0EB07F30
5F504500
7F100000
6F206400
0ADB7000
ENDCHAR
STARTCHAR d
ENCODING 100
SWIDTH 557 0
DWIDTH 8 0
BBX 9 12 0 0
BITMAP
0000000160
00000009D0
0000001E80
0000006F20
000000AC00
0019CBE700
01D908F300
0AD00BD000
2F602F9000
5F309F5000
5F25DF2000
1CC92DB300
ENDCHAR
STARTCHAR e
ENCODING 101
SWIDTH 471 0
DWIDTH 7 0
BBX 7 7 0 0
BITMAP
002ACB10
02E60F50
0CC06F30
3F88F700
6F972000
4F304500
09DCA200
ENDCHAR
STARTCHAR f
ENCODING 102
SWIDTH 393 0
DWIDTH 6 0
BBX 9 14 -1 -2
BITMAP
000006CB10
00004F3C70
0000BB2F70
0001F75E20
0005F30000
0009E00000
01BFEC9000
017F400000
007E000000
00CA000000
02F6000000
07F1000000
0DA0000000
2C20000000
ENDCHAR
STARTCHAR g
ENCODING 103
SWIDTH 526 0
DWIDTH 7 0
BBX 8 11 0 -4
BITMAP
002AC973
02E708F4
0CC00BD0
4F602F80
7F20AF30
6F16EE00
1CD8C800
0002F200
000BA000
009D1000
0BA10000
ENDCHAR
STARTCHAR h
ENCODING 104
SWIDTH 555 0
DWIDTH 8 0
BBX 8 12 0 0
BITMAP
00043000
000CB000
000E8000
003F4000
007E0000
00C94CD1
01F676F3
06E90CE0
0CD14F80
3F509F20
AD00BC00
C5006E90
ENDCHAR
STARTCHAR i
ENCODING 105
SWIDTH 286 0
DWIDTH 4 0
BBX 5 11 0 0
BITMAP
005E50
006E40
000000
000000
05E600
02F500
07E000
0D7000
4F1000
8E5000
5E9000
ENDCHAR
STARTCHAR j
ENCODING 106
SWIDTH 281 0
DWIDTH 4 0
BBX 8 15 -3 -4
BITMAP
00000BE1
00000BC0
00000000
00000000
00007E40
00004F50
00006F20
00009E00
0000D900
0002F500
0008D000
001E7000
007D1000
03E30000
3C300000
ENDCHAR
STARTCHAR k
ENCODING 107
SWIDTH 497 0
DWIDTH 7 0
BBX 7 12 0 0
BITMAP
00043000
000C9000
000E7000
003F3000
007E0000
00C90BD0
01F40CD0
06D3BD30
0CEE5000
3F9F3000
AD0DD430
C503DD30
ENDCHAR
STARTCHAR l
ENCODING 108
SWIDTH 279 0
DWIDTH 4 0
BBX 5 12 0 0
BITMAP
000610
001F70
003F40
007F10
00BB00
01F600
06F100
0BB000
1F6000
5F2000
8E2100
4E9000
ENDCHAR
STARTCHAR m
ENCODING 109
SWIDTH 814 0
DWIDTH 11 0
BBX 11 7 0 0
BITMAP
05E53BD07D80
02F793E84BC0
06E908E73F70
0CE21EB09E10
3F506F20E900
AD00CA01F830
C600D400BE30
ENDCHAR
STARTCHAR n
ENCODING 110
SWIDTH 561 0
DWIDTH 8 0
BBX 8 7 0 0
BITMAP
05E43BD1
02F785F4
06E90BF1
0CE12F90
3F507F30
AD009D00
C6005E90
ENDCHAR
STARTCHAR o
ENCODING 111
SWIDTH 514 0
DWIDTH 7 0
BBX 7 7 0 0
BITMAP
003BCC20
03E80D90
0DC00DA0
4F502F70
7F109F20
6F14F600
0ADC5000
ENDCHAR
STARTCHAR p
ENCODING 112
SWIDTH 550 0
DWIDTH 8 0
BBX 9 11 -1 -4
BITMAP
009E3BD900
006FC26F10
009F406F20
00DA00AE00
02F502F700
06F52CB000
0ACCD80000
0E60000000
4F20000000
AC00000000
C500000000
ENDCHAR
STARTCHAR q
ENCODING 113
SWIDTH 533 0
DWIDTH 7 0
BBX 8 11 0 -4
BITMAP
002ACA63
02D908F6
0BC00CE1
3F602F90
6F20AF30
5F25EC00
1CC8C600
0002F200
0007D000
0009B000
0006B000
ENDCHAR
STARTCHAR r
ENCODING 114
SWIDTH 407 0
DWIDTH 6 0
BBX 7 7 0 0
BITMAP
07E27E30
04F7CD20
07EA0000
0BE20000
2F800000
8E100000
99000000
ENDCHAR
STARTCHAR s
ENCODING 115
SWIDTH 423 0
DWIDTH 6 0
BBX 6 7 0 0
BITMAP
019CD6
08D08D
08F233
02FC00
117F50
B72F50
6ED800
ENDCHAR
STARTCHAR t
ENCODING 116
SWIDTH 358 0
DWIDTH 5 0
BBX 5 9 1 0
BITMAP
00A800
03F500
5EEB70
1F6000
6F1000
AB0000
D80000
D95700
8FB100
ENDCHAR
STARTCHAR u
ENCODING 117
SWIDTH 553 0
DWIDTH 8 0
BBX 8 7 0 0
BITMAP
04E600B8
02F705F4
07F20DC0
0DB07F60
5F53CF10
9E2A8D00
6E915E90
ENDCHAR
STARTCHAR v
ENCODING 118
SWIDTH 510 0
DWIDTH 7 0
BBX 7 7 0 0
BITMAP
04E60CA0
01F709E0
07F109C0
0D900D60
4F306C00
8F16C200
4ED81000
ENDCHAR
STARTCHAR w
ENCODING 119
SWIDTH 750 0
DWIDTH 11 0
BBX 11 7 0 0
BITMAP
07E501607E20
02F60AD04F40
05F14F702F20
0BA1DF105C00
2F49CC00C400
6FA78D2A8000
5E503ED60000
ENDCHAR
STARTCHAR x
ENCODING 120
SWIDTH 467 0
DWIDTH 7 0
BBX 9 7 -1 0
BITMAP
002D11AD10
007F2BB100
005FAB0000
002FD10000
002FB00000
03DAF20000
2D40AD6000
ENDCHAR
STARTCHAR y
ENCODING 121
SWIDTH 549 0
DWIDTH 8 0
BBX 8 12 0 -5
BITMAP
03E700A9
01F804F6
06F30CF1
0DC05FB0
4F61CF60
8F1A7F10
5E92AA00
0002F300
000AA000
008D1000
1CC20000
01000000
ENDCHAR
STARTCHAR z
ENCODING 122
SWIDTH 430 0
DWIDTH 6 0
BBX 7 7 0 0
BITMAP
05D99D40
0055BE20
001AE400
01CD2000
1CC10000
9E675000
BC89D100
ENDCHAR
STARTCHAR braceleft
ENCODING 123
SWIDTH 424 0
DWIDTH 6 0
BBX 8 15 0 -3
BITMAP
000007D6
00003F50
00008E00
0000CA00
0001F600
0006F100
002E9000
07E91000
02F30000
00F60000
05F30000
0AC00000
1F600000
3F300000
1CB00000
ENDCHAR
STARTCHAR bar
ENCODING 124
SWIDTH 306 0
DWIDTH 4 0
BBX 2 15 1 -2
BITMAP
1D
4F
4F
4F
4F
4F
4F
4F
4F
4F
4F
4F
4F
4F
3C
ENDCHAR
STARTCHAR braceright
ENCODING 125
SWIDTH 424 0
DWIDTH 6 0
BBX 8 15 -1 -3
BITMAP
00002CA0
000006F1
000009D0
00001E80
00005F20
00009C00
00006D10
0002AE40
000CC100
004F4000
009D0000
00D90000
02F50000
08E10000
9D500000
ENDCHAR
STARTCHAR asciitilde
ENCODING 126
SWIDTH 624 0
DWIDTH 9 0
BBX 9 3 0 4
BITMAP
019C800350
0A33F70B20
18005CA300
ENDCHAR
STARTCHAR nonbreakingspace
ENCODING 160
SWIDTH 293 0
DWIDTH 4 0
BBX 1 1 0 0
BITMAP
00
ENDCHAR
STARTCHAR exclamdown
ENCODING 161
SWIDTH 417 0
DWIDTH 6 0
BBX 6 11 0 -3
BITMAP
0009E3
000AE3
000200
005A00
01E500
07E000
0DA000
3F6000
7F3000
9F1000
4C0000
ENDCHAR
STARTCHAR cent
ENCODING 162
SWIDTH 487 0
DWIDTH 7 0
BBX 6 11 1 0
BITMAP
000089
0002F2
019EE1
0CE5A8
7F51D9
CD03E3
EA0000
CB0280
3DDA30
0D2000
0C0000
ENDCHAR
STARTCHAR sterling
ENCODING 163
SWIDTH 665 0
DWIDTH 9 0
BBX 11 11 -1 0
BITMAP
00000019CB10
000000AD1A50
000004F50C60
00000BE05F40
00002F94FC00
00007F42A200
002CFFC80000
0003F7000000
08CDF1000000
4B2FFB106400
2CDB5ADCB100
ENDCHAR
STARTCHAR currency
ENCODING 164
SWIDTH 572 0
DWIDTH 8 0
BBX 9 9 0 0
BITMAP
0007100100
000EDCCA20
005F55F100
01EA05F300
05F308F100
07F01EA000
05F19E2000
0ABCBD0000
1700082000
ENDCHAR
STARTCHAR yen
ENCODING 165
SWIDTH 583 0
DWIDTH 8 0
BBX 10 11 0 0
BITMAP
1BD30002CC
13DB001DD2
005F20BE20
000E56F300
00098E7000
0006FC0000
02DFFF8000
0008E00000
08FFFD3000
001F400000
002D100000
ENDCHAR
STARTCHAR brokenbar
ENCODING 166
SWIDTH 292 0
DWIDTH 4 0
BBX 2 15 1 -2
BITMAP
4B
7C
7C
7C
7C
7C
69
00
4B
7C
7C
7C
7C
7C
69
ENDCHAR
STARTCHAR section
ENCODING 167
SWIDTH 583 0
DWIDTH 8 0
BBX 9 15 0 -3
BITMAP
00005CC700
0004F41E40
000AD01E60
000BE0CE20
0008F55300
006DFC0000
04F38F4000
0AD01FA000
09F10BD000
05F90B9000
00CFCA1000
003F900000
970CA00000
D90C600000
5CB7000000
ENDCHAR
STARTCHAR dieresis
ENCODING 168
SWIDTH 412 0
DWIDTH 6 0
BBX 6 2 0 9
BITMAP
4E72E9
4E52E7
ENDCHAR
STARTCHAR copyright
ENCODING 169
SWIDTH 871 0
DWIDTH 12 0
BBX 11 11 1 0
BITMAP
0004BCCC6000
009B3001B900
08B03BC51E40
3E13E71D0A90
990CB08C08A0
C52F53F40980
D44F20000D50
C62F41704E00
7C05CC62D400
1C80005D6000
018CCC920000
ENDCHAR
STARTCHAR ordfeminine
ENCODING 170
SWIDTH 564 0
DWIDTH 8 0
BBX 7 6 1 4
BITMAP
004BB890
05E44F60
1E708E00
5F11E800
6E1AE500
1BB49B30
ENDCHAR
STARTCHAR guillemotleft
ENCODING 171
SWIDTH 662 0
DWIDTH 9 0
BBX 8 6 1 1
BITMAP
003B1077
18D34D90
DC16F500
8E22E900
09D23E70
00620250
ENDCHAR
STARTCHAR logicalnot
ENCODING 172
SWIDTH 729 0
DWIDTH 10 0
BBX 8 5 1 0
BITMAP
9CCCCCCC
0000004E
0000005D
0000006D
00000023
ENDCHAR
STARTCHAR uni00AD
ENCODING 173
SWIDTH 833 0
DWIDTH 12 0
BBX 1 1 0 0
BITMAP
00
ENDCHAR
STARTCHAR registered
ENCODING 174
SWIDTH 742 0
DWIDTH 10 0
BBX 9 9 1 2
BITMAP
0029CCC500
03C5442C50
0C3C9B93D0
590676A0E0
950CDB21E0
A52E8805A0
79651B4D30
1D6105D600
019DDA3000
ENDCHAR
STARTCHAR macron
ENCODING 175
SWIDTH 392 0
DWIDTH 5 0
BBX 5 1 1 8
BITMAP
ACCC70
ENDCHAR
STARTCHAR degree
ENCODING 176
SWIDTH 405 0
DWIDTH 6 0
BBX 5 5 1 6
BITMAP
03CD80
1E54F0
6E06E0
6E2D80
09B700
ENDCHAR
STARTCHAR plusminus
ENCODING 177
SWIDTH 617 0
DWIDTH 9 0
BBX 7 9 1 0
BITMAP
001B0000
002D0000
002D0000
ACCFCC80
002D0000
002D0000
001B0000
00000000
ACCCCC80
ENDCHAR
STARTCHAR twosuperior
ENCODING 178
SWIDTH 458 0
DWIDTH 6 0
BBX 6 7 1 4
BITMAP
01ACC2
09B0B9
09C2E7
003DD1
04EA10
6E5020
A99C60
ENDCHAR
STARTCHAR threesuperior
ENCODING 179
SWIDTH 430 0
DWIDTH 6 0
BBX 6 8 1 3
BITMAP
009CC2
06B0C9
06B1E7
005DC1
00BF20
750E70
D64F20
5BA300
ENDCHAR
STARTCHAR acute
ENCODING 180
SWIDTH 322 0
DWIDTH 5 0
BBX 4 4 1 8
BITMAP
0030
03F4
0AD1
7A10
ENDCHAR
STARTCHAR mu
ENCODING 181
SWIDTH 618 0
DWIDTH 9 0
BBX 10 11 -1 -4
BITMAP
0003E103E2
000CB00CC0
005F405F60
00CC01EE00
03F70AE900
08F8A7DA40
0CDE709E50
1F30000000
4F00000000
6E00000000
5B00000000
ENDCHAR
STARTCHAR paragraph
ENCODING 182
SWIDTH 739 0
DWIDTH 10 0
BBX 12 12 0 -1
BITMAP
0000048BCDD7
0002CFFC1CA0
001DFFF51F60
004FFFF15F20
003FFFC09D00
0006EF80D800
00006F42F300
0000AE17D000
0120E90C7000
3E85F22F1000
8E1C80890000
3CC700B10000
ENDCHAR
STARTCHAR periodcentered
ENCODING 183
SWIDTH 353 0
DWIDTH 5 0
BBX 3 3 1 3
BITMAP
2EB0
2FA0
0100
ENDCHAR
STARTCHAR cedilla
ENCODING 184
SWIDTH 301 0
DWIDTH 4 0
BBX 3 4 1 -3
BITMAP
1A00
0C40
5F30
CA00
ENDCHAR
STARTCHAR onesuperior
ENCODING 185
SWIDTH 403 0
DWIDTH 6 0
BBX 5 7 1 4
BITMAP
003D70
17EF70
166F20
00AB00
02F400
09B000
1C1000
ENDCHAR
STARTCHAR ordmasculine
ENCODING 186
SWIDTH 498 0
DWIDTH 7 0
BBX 6 6 1 4
BITMAP
006CC4
07E27E
2F608E
7F00DA
6E09E2
1ACA20
ENDCHAR
STARTCHAR guillemotright
ENCODING 187
SWIDTH 665 0
DWIDTH 9 0
BBX 9 6 0 1
BITMAP
04D20C7000
009D23E700
000CC05F50
008E53DB10
0B915D5000
1300410000
ENDCHAR
STARTCHAR onequarter
ENCODING 188
SWIDTH 988 0
DWIDTH 14 0
BBX 12 12 1 0
BITMAP
000000006000
004E3008C000
05FF402F3000
6EBE00AA0000
00B903E23000
02F30C80D700
08C05E13F400
1E30D60AC0B6
5607C03F32F4
001E402DEEF8
009A00001E40
01D200008600
ENDCHAR
STARTCHAR onehalf
ENCODING 189
SWIDTH 988 0
DWIDTH 14 0
BBX 12 11 1 0
BITMAP
004E3003D000
04FF400C7000
5ECE007D0000
00BA01E40000
01F409A08CD6
07C03E24F16E
1E40C803E2BC
5806D10009F5
001E5001BE50
008B002DB210
01D2007FCCB0
ENDCHAR
STARTCHAR threequarters
ENCODING 190
SWIDTH 1007 0
DWIDTH 14 0
BBX 13 12 0 0
BITMAP
00000000015000
004CD7000C7000
00E35F106D0000
00D39E01E50000
0019F508C17000
006D902F34F100
2907E0AA09C140
6D0C93E21E55E0
1AB70C808B0A90
00005D104DDFA0
0000D600008900
0006A00001A100
ENDCHAR
STARTCHAR questiondown
ENCODING 191
SWIDTH 516 0
DWIDTH 7 0
BBX 7 11 0 -3
BITMAP
00006E40
00009F50
00001100
0000B400
0009E100
01BF6000
1DE50000
AE356000
E60AD000
C61D8000
3BC80000
ENDCHAR
STARTCHAR Agrave
ENCODING 192
SWIDTH 615 0
DWIDTH 9 0
BBX 12 14 -2 0
BITMAP
000000003300
00000000BB00
000000003C60
000000005CE1
0000000AAAC0
000000991E60
000006C07F10
00002E20DA00
0003BEDFFF90
000AE339F300
000B700AD000
005E100DA000
02D7000D9000
1DA00007E900
ENDCHAR
STARTCHAR Aacute
ENCODING 193
SWIDTH 615 0
DWIDTH 9 0
BBX 12 14 -2 0
BITMAP
000000000034
0000000000BC
0000000007B2
000000005CE1
0000000AAAC0
000000991E60
000006C07F10
00002E20DA00
0003BEDFFF90
000AE339F300
000B700AD000
005E100DA000
02D7000D9000
1DA00007E900
ENDCHAR
STARTCHAR Acircumflex
ENCODING 194
SWIDTH 615 0
DWIDTH 9 0
BBX 12 14 -2 0
BITMAP
000000000050
000000002BF4
00000004C58C
000000005CE1
0000000AAAC0
000000991E60
000006C07F10
00002E20DA00
0003BEDFFF90
000AE339F300
000B700AD000
005E100DA000
02D7000D9000
1DA00007E900
ENDCHAR
STARTCHAR Atilde
ENCODING 195
SWIDTH 615 0
DWIDTH 9 0
BBX 13 13 -2 0
BITMAP
000000019C4260
0000000716C810
000000005CE100
0000000AAAC000
000000991E6000
000006C07F1000
00002E20DA0000
0003BEDFFF9000
000AE339F30000
000B700AD00000
005E100DA00000
02D7000D900000
1DA00007E90000
ENDCHAR
STARTCHAR Adieresis
ENCODING 196
SWIDTH 615 0
DWIDTH 9 0
BBX 13 14 -2 0
BITMAP
00000002711720
00000009F57F70
00000002701710
000000005CE100
0000000AAAC000
000000991E6000
000006C07F1000
00002E20DA0000
0003BEDFFF9000
000AE339F30000
000B700AC00000
005E100DA00000
02D7000DB50000
1DA00007E80000
ENDCHAR
STARTCHAR Aring
ENCODING 197
SWIDTH 615 0
DWIDTH 9 0
BBX 12 14 -2 0
BITMAP
000000001AC6
00000000A85D
00000000D69A
000000009FF2
00000008ECD0
0000006E3C90
000003F52F40
00000CA08E00
00006F20CA00
0009FDACFC60
0008C008E000
002E300CB000
01C9000D9000
1CA10008E900
ENDCHAR
STARTCHAR AE
ENCODING 198
SWIDTH 878 0
DWIDTH 12 0
BBX 15 11 -1 0
BITMAP
00000007CEBECA10
0000009A5FD20C50
000006D1CF207F20
00002E41F907F800
0000BB03F5013000
0005F301F5000000
007EDABCFEB30000
00AC0009F7000000
03F4002F90031000
1CA0002F705E2000
CB100007EEB40000
ENDCHAR
STARTCHAR Ccedilla
ENCODING 199
SWIDTH 533 0
DWIDTH 7 0
BBX 9 14 0 -3
BITMAP
00005CCA10
0007E40A60
006F401E70
01E901BF20
08F204F700
0DC0000000
1F80000000
3F60000000
4F60000000
1EA0195000
04ECC91000
0069000000
00AA000000
06E3000000
ENDCHAR
STARTCHAR Egrave
ENCODING 200
SWIDTH 509 0
DWIDTH 7 0
BBX 9 14 0 0
BITMAP
0000160000
00005F3000
000009C000
0002ADC900
004EA10E20
00DC00AE00
04F40AF500
05F1012000
01DA810000
02CF920000
1DE3000000
5F60040000
5F306E0000
09DDB30000
ENDCHAR
STARTCHAR Eacute
ENCODING 201
SWIDTH 509 0
DWIDTH 7 0
BBX 9 14 0 0
BITMAP
0000000610
0000004F40
000002C600
0002ADC900
004EA10E20
00DC00AE00
04F40AF500
05F1012000
01DA810000
02CF920000
1DE3000000
5F60040000
5F306E0000
09DDB30000
ENDCHAR
STARTCHAR Ecircumflex
ENCODING 202
SWIDTH 509 0
DWIDTH 7 0
BBX 9 14 0 0
BITMAP
0000003200
000006FB00
0000B93E40
0002ADC900
004EA10E20
00DC00AE00
04F40AF500
05F1012000
01DA810000
02CF920000
1DE3000000
5F60040000
5F306E0000
09DDB30000
ENDCHAR
STARTCHAR Edieresis
ENCODING 203
SWIDTH 509 0
DWIDTH 7 0
BBX 9 14 0 0
BITMAP
0000640550
0003FC1FE0
0000630540
0002ADC900
004EA10E20
00DC00AE00
04F40AF500
05F1012000
01DA810000
02CF920000
1DE3000000
5F60040000
5F306E0000
09DDB30000
ENDCHAR
STARTCHAR Igrave
ENCODING 204
SWIDTH 327 0
DWIDTH 5 0
BBX 7 14 -1 0
BITMAP
00006000
0003F500
00008D10
005DD700
0002BD00
0000DB00
0002F700
0006F400
000AE000
001E9000
006F3000
00CB0000
06E30000
1E500000
ENDCHAR
STARTCHAR Iacute
ENCODING 205
SWIDTH 327 0
DWIDTH 5 0
BBX 8 14 -1 0
BITMAP
00000061
000003F5
00001C70
005DD700
0002BD00
0000DB00
0002F700
0006F400
000AE000
001E9000
006F3000
00CB0000
06E30000
1E500000
ENDCHAR
STARTCHAR Icircumflex
ENCODING 206
SWIDTH 327 0
DWIDTH 5 0
BBX 8 14 -1 0
BITMAP
00000330
00005ED0
000AA3D5
005DD700
0002BD00
0000DB00
0002F700
0006F400
000AE000
001E9000
006F3000
00CB0000
06E30000
1E500000
ENDCHAR
STARTCHAR Idieresis
ENCODING 207
SWIDTH 327 0
DWIDTH 5 0
BBX 9 14 -1 0
BITMAP
0005504600
001FD0EF10
0006305500
005DD70000
0002BD0000
0000DB0000
0002F70000
0006F40000
000AE00000
001E900000
006F300000
00CB000000
06E3000000
1E50000000
ENDCHAR
STARTCHAR Eth
ENCODING 208
SWIDTH 630 0
DWIDTH 9 0
BBX 9 11 0 0
BITMAP
03ADDCB400
07E4004E40
0009600AB0
005F7008E0
00BE100AD0
6FFFF81EA0
19F4307F40
0DB002EA00
3F501DC100
6F14DA1000
2CCC500000
ENDCHAR
STARTCHAR Ntilde
ENCODING 209
SWIDTH 708 0
DWIDTH 10 0
BBX 12 13 0 0
BITMAP
0000005BA171
00000181AB50
0001AE004E60
0009FD000EC0
004DBC000DB0
00B6BC001F60
03E1AD006E10
09909E00B800
0E507F23E100
4F104F697000
8C000EBD1000
A90009F80000
860001C40000
ENDCHAR
STARTCHAR Ograve
ENCODING 210
SWIDTH 655 0
DWIDTH 9 0
BBX 10 14 0 0
BITMAP
0000005100
000001F700
0000006D30
00004BCD50
0006F604F2
004F7001F5
00DC0002F5
06F50005F3
0BE0000AE0
0F90002F90
2F50009E20
1F4004F700
0C803E8000
02BCC50000
ENDCHAR
STARTCHAR Oacute
ENCODING 211
SWIDTH 655 0
DWIDTH 9 0
BBX 10 14 0 0
BITMAP
0000000052
00000001E8
0000000B80
00004BCD50
0006F604F2
004F7001F5
00DC0002F5
06F50005F3
0BE0000AE0
0F90002F90
2F50009E20
1F4004F700
0C803E8000
02BCC50000
ENDCHAR
STARTCHAR Ocircumflex
ENCODING 212
SWIDTH 655 0
DWIDTH 9 0
BBX 10 14 0 0
BITMAP
0000000240
0000004DE1
000008B3C8
00004BCD50
0006F604F2
004F7001F5
00DC0002F5
06F50005F3
0BE0000AE0
0F90002F90
2F50009E20
1F4004F700
0C803E8000
02BCC50000
ENDCHAR
STARTCHAR Otilde
ENCODING 213
SWIDTH 655 0
DWIDTH 9 0
BBX 11 13 0 0
BITMAP
000004BB1530
00000809C600
00004BCD5000
0006F604F200
004F7001F500
00DC0002F500
06F50005F300
0BE0000AE000
0F90002F9000
2F50009E2000
1F4004F70000
0C803E800000
02BCC5000000
ENDCHAR
STARTCHAR Odieresis
ENCODING 214
SWIDTH 655 0
DWIDTH 9 0
BBX 11 14 0 0
BITMAP
000004603710
00000EF1CF30
000004503600
00004BCD5000
0006F604F200
004F7001F500
00DC0002F500
06F50005F300
0BE0000AE000
0F90002F9000
2F50009E2000
1F4004F70000
0C803E800000
02BCC5000000
ENDCHAR
STARTCHAR multiply
ENCODING 215
SWIDTH 573 0
DWIDTH 8 0
BBX 7 6 1 2
BITMAP
6A002D20
0B91D600
01CE7000
01CE5000
0B93E400
7A004C00
ENDCHAR
STARTCHAR Oslash
ENCODING 216
SWIDTH 655 0
DWIDTH 9 0
BBX 9 13 1 -1
BITMAP
0000000470
00018DDF40
001DB1DE80
00CD179AB0
06F41D1BC0
0EB0860EA0
4F52B03F60
8F1A30AF10
AD3A02F800
ABB20CD100
6F90AD2000
2FDD910000
8600000000
ENDCHAR
STARTCHAR Ugrave
ENCODING 217
SWIDTH 624 0
DWIDTH 9 0
BBX 10 14 0 0
BITMAP
0000043000
00000DA000
000004C500
004E8000A8
000F9003F6
004F500AE1
00AE002F90
02F8009F40
08F202FE00
0DB00AFA00
4F503CF600
9E00B5F300
AD0836F100
5EA302DB30
ENDCHAR
STARTCHAR Uacute
ENCODING 218
SWIDTH 624 0
DWIDTH 9 0
BBX 10 14 0 0
BITMAP
0000000340
0000000CB0
0000008A10
004E8000A8
000F9003F6
004F500AE1
00AE002F90
02F8009F40
08F202FE00
0DB00AFA00
4F503CF600
9E00B5F300
AD0836F100
5EA302DB30
ENDCHAR
STARTCHAR Ucircumflex
ENCODING 219
SWIDTH 624 0
DWIDTH 9 0
BBX 10 14 0 0
BITMAP
0000001500
000002CF30
00005C49B0
004E8000A8
000F9003F6
004F500AE1
00AE002F90
02F8009F40
08F202FE00
0DB00AFA00
4F503CF600
9E00B5F300
AD0836F100
5EA302DB30
ENDCHAR
STARTCHAR Udieresis
ENCODING 220
SWIDTH 624 0
DWIDTH 9 0
BBX 10 14 0 0
BITMAP
0000371272
0000BF48F6
0000360270
004E8000A8
000F9003F6
004F500AE1
00AE002F90
02F8009F40
08F202FE00
0DB00AFA00
4F503CF600
9E00B5F300
AD0836F100
5EA302DB30
ENDCHAR
STARTCHAR Yacute
ENCODING 221
SWIDTH 580 0
DWIDTH 8 0
BBX 10 18 0 -4
BITMAP
0000000430
0000001D90
000000A910
004E7000B8
001F9003F5
005F400BD0
00BE003F80
02F800AF30
08F203FD00
0EA00AF700
5F404DF200
9E00B9C000
BC094E6000
5EA37D0000
0001E50000
000BA00000
00AC100000
2C91000000
ENDCHAR
STARTCHAR Thorn
ENCODING 222
SWIDTH 527 0
DWIDTH 7 0
BBX 9 11 -1 0
BITMAP
00BDD20000
0023F50000
0006F30000
0009FCA500
000DB02F40
003F701F80
008F209F30
00DD8DD600
05F8640000
1DA0000000
8B10000000
ENDCHAR
STARTCHAR germandbls
ENCODING 223
SWIDTH 520 0
DWIDTH 7 0
BBX 9 14 -1 -2
BITMAP
00001AC900
0000C90C60
0006E10D70
000C904F30
002F41E900
006F1AA000
00AC1F3000
00E82F7000
02F50BE200
06F122E900
0AC6D09A00
0E82CDA100
4F30000000
9A00000000
ENDCHAR
STARTCHAR agrave
ENCODING 224
SWIDTH 541 0
DWIDTH 8 0
BBX 8 12 0 -1
BITMAP
0000C700
0000E700
00008A00
00000400
002BC9D6
03E70BF2
0CB00EA0
4F505F40
7F10CE00
7F08CC10
1CC66FD0
00000310
ENDCHAR
STARTCHAR aacute
ENCODING 225
SWIDTH 541 0
DWIDTH 8 0
BBX 8 12 0 -1
BITMAP
00000670
00000DB0
00009C10
00016000
002BC9D6
03E70BF2
0CB00EA0
4F505F40
7F10CE00
7F08CC10
1CC66FD0
00000310
ENDCHAR
STARTCHAR acircumflex
ENCODING 226
SWIDTH 541 0
DWIDTH 8 0
BBX 8 12 0 -1
BITMAP
000007A0
0001ACF1
002D70D5
00000000
002BC9D6
03E70BF2
0CB00EA0
4F505F40
7F10CE00
7F08CC10
1CC66FD0
00000310
ENDCHAR
STARTCHAR atilde
ENCODING 227
SWIDTH 541 0
DWIDTH 8 0
BBX 8 12 0 -1
BITMAP
0004C707
00193E19
002409A1
00000000
002BC9D6
03E70BF2
0CB00EA0
4F505F40
7F10CE00
7F08CC10
1CC66FD0
00000310
ENDCHAR
STARTCHAR adieresis
ENCODING 228
SWIDTH 541 0
DWIDTH 8 0
BBX 8 12 0 -1
BITMAP
001DB0CD
001E80DB
00000000
00000000
002BC9D6
03E70BF2
0CB00EA0
4F505F40
7F10CE00
7F08CC10
1CC66FD0
00000310
ENDCHAR
STARTCHAR aring
ENCODING 229
SWIDTH 541 0
DWIDTH 8 0
BBX 8 12 0 -1
BITMAP
0000ACC1
0006C1E3
0003CC70
00000000
002BC9D6
03E70BF2
0CB00EA0
4F505F40
7F10CE00
7F08CC10
1CC66FD0
00000310
ENDCHAR
STARTCHAR ae
ENCODING 230
SWIDTH 769 0
DWIDTH 11 0
BBX 11 7 0 0
BITMAP
002BC9DCCD20
03E70BF71F70
0CA00DD05F60
4F405F74ED10
7F00CFED8100
7F08BF501500
1CC808DCB400
ENDCHAR
STARTCHAR ccedilla
ENCODING 231
SWIDTH 465 0
DWIDTH 7 0
BBX 7 10 0 -3
BITMAP
003BCC10
04F70E50
1EB07F30
5F404500
8F100000
6F206400
1AEC8000
00C30000
03E40000
0CB00000
ENDCHAR
STARTCHAR egrave
ENCODING 232
SWIDTH 471 0
DWIDTH 7 0
BBX 7 11 0 0
BITMAP
0005E000
0008E000
0002E200
00003200
002ACB10
02E60F50
0CC06F30
3F88F700
6F972000
4F304500
09DCA200
ENDCHAR
STARTCHAR eacute
ENCODING 233
SWIDTH 471 0
DWIDTH 7 0
BBX 7 11 0 0
BITMAP
00001B20
00006F30
0003E600
00052000
002ACB10
02E60F50
0CC06F30
3F88F700
6F972000
4F304500
09DCA200
ENDCHAR
STARTCHAR ecircumflex
ENCODING 234
SWIDTH 471 0
DWIDTH 7 0
BBX 7 11 0 0
BITMAP
00002C30
0005DD80
009B26C0
00000000
002ACB10
02E60F50
0CC06F30
3F88F700
6F972000
4F304500
09DCA200
ENDCHAR
STARTCHAR edieresis
ENCODING 235
SWIDTH 471 0
DWIDTH 7 0
BBX 8 11 0 0
BITMAP
008E36E5
008E26E3
00000000
00000000
002ACC10
02E51F50
0CA1AE10
3FCC9200
6F100000
4F407700
09DC9100
ENDCHAR
STARTCHAR igrave
ENCODING 236
SWIDTH 286 0
DWIDTH 4 0
BBX 4 11 0 0
BITMAP
00C7
00E8
008A
0004
05E6
02F5
07E0
0D70
4F10
8E50
5E90
ENDCHAR
STARTCHAR iacute
ENCODING 237
SWIDTH 286 0
DWIDTH 4 0
BBX 5 11 0 0
BITMAP
000680
000DB0
008C20
016000
05E600
02F500
07E000
0D7000
4F1000
8E5000
5E9000
ENDCHAR
STARTCHAR icircumflex
ENCODING 238
SWIDTH 286 0
DWIDTH 4 0
BBX 6 11 0 0
BITMAP
0007B0
01ACF1
2D70C6
000000
05E600
02F500
07E000
0D7000
4F1000
8E5000
5E9000
ENDCHAR
STARTCHAR idieresis
ENCODING 239
SWIDTH 286 0
DWIDTH 4 0
BBX 6 11 0 0
BITMAP
1DB0CD
1E90CB
000000
000000
05E600
02F500
07E000
0D7000
4F1000
8E5000
5E9000
ENDCHAR
STARTCHAR eth
ENCODING 240
SWIDTH 524 0
DWIDTH 7 0
BBX 9 12 0 0
BITMAP
0000041000
000005A000
000005FE80
000088D500
000000E600
002ACAF500
02E709F200
0BB00BD000
3F502F7000
6F20AD1000
5F25E30000
1BDB300000
ENDCHAR
STARTCHAR ntilde
ENCODING 241
SWIDTH 561 0
DWIDTH 8 0
BBX 8 11 0 0
BITMAP
0004C707
00193E19
002409A1
00000000
05E43BD1
02F785F4
06E90BF1
0CE12F90
3F507F30
AD009D00
C6005E90
ENDCHAR
STARTCHAR ograve
ENCODING 242
SWIDTH 514 0
DWIDTH 7 0
BBX 7 11 0 0
BITMAP
0000A900
0000D900
00006C00
00000400
003BCC20
03E80D90
0DC00DA0
4F502F70
7F109F20
6F14F600
0ADC5000
ENDCHAR
STARTCHAR oacute
ENCODING 243
SWIDTH 514 0
DWIDTH 7 0
BBX 7 11 0 0
BITMAP
00000490
00000BD0
00007D20
00006100
003BCC20
03E80D90
0DC00DA0
4F502F70
7F109F20
6F14F600
0ADC5000
ENDCHAR
STARTCHAR ocircumflex
ENCODING 244
SWIDTH 514 0
DWIDTH 7 0
BBX 8 11 0 0
BITMAP
000005C0
00019CF3
001D80B7
00000000
003BCC20
03E80D90
0DC00DA0
4F502F70
7F109F20
6F14F600
0ADC5000
ENDCHAR
STARTCHAR otilde
ENCODING 245
SWIDTH 514 0
DWIDTH 7 0
BBX 9 11 0 0
BITMAP
0003C90620
00091E2900
001607B200
0000000000
003BCC2000
03E80D9000
0DC00DA000
4F502F7000
7F109F2000
6F14F60000
0ADC500000
ENDCHAR
STARTCHAR odieresis
ENCODING 246
SWIDTH 514 0
DWIDTH 7 0
BBX 9 11 0 0
BITMAP
000CC0BE10
000DA0BC00
0000000000
0000000000
003BCC2000
03E80D9000
0DC00DA000
4F502F7000
7F109F2000
6F14F60000
0ADC500000
ENDCHAR
STARTCHAR divide
ENCODING 247
SWIDTH 617 0
DWIDTH 9 0
BBX 7 7 1 2
BITMAP
003E7000
002B3000
00000000
8CCCCCA0
00000000
005F4000
003B2000
ENDCHAR
STARTCHAR oslash
ENCODING 248
SWIDTH 514 0
DWIDTH 7 0
BBX 8 9 0 -1
BITMAP
000005E3
003BDF70
03E87E90
0DC28CA0
4F592F80
7F558F20
5FA4F700
0EDC6000
3B000000
ENDCHAR
STARTCHAR ugrave
ENCODING 249
SWIDTH 553 0
DWIDTH 8 0
BBX 8 11 0 0
BITMAP
00006D00
00008E00
00002E10
00000320
04E600C8
02F606F3
07F11EB0
0DA09F50
5F36BE00
9E6A8D40
6E905E90
ENDCHAR
STARTCHAR uacute
ENCODING 250
SWIDTH 553 0
DWIDTH 8 0
BBX 8 11 0 0
BITMAP
000001B1
000007F2
00003E60
00005200
04E600B8
02F705F4
07F20DC0
0DB07F60
5F53CF10
9E2A8D00
6E915E90
ENDCHAR
STARTCHAR ucircumflex
ENCODING 251
SWIDTH 553 0
DWIDTH 8 0
BBX 8 11 0 0
BITMAP
000002C3
00005DD7
000AA26C
00000000
04E600B8
02F705F4
07F20DC0
0DB07F60
5F53CF10
9E2A8D00
6E915E90
ENDCHAR
STARTCHAR udieresis
ENCODING 252
SWIDTH 553 0
DWIDTH 8 0
BBX 9 11 0 0
BITMAP
0008E36E40
0009D17E30
0000000000
0000000000
04E600B800
02F705F400
07F20DC000
0DB07F6000
5F53CF1000
9E2A8D0000
6E915E9000
ENDCHAR
STARTCHAR yacute
ENCODING 253
SWIDTH 549 0
DWIDTH 8 0
BBX 8 16 0 -5
BITMAP
00000580
00000CC0
00008D20
00016000
03E700A9
01F804F6
06F30CF1
0DC05FB0
4F61CF60
8F1A7F10
5E92AA00
0002F300
000AA000
008D1000
1CC20000
01000000
ENDCHAR
STARTCHAR thorn
ENCODING 254
SWIDTH 552 0
DWIDTH 8 0
BBX 10 15 -2 -4
BITMAP
0000089000
00000C8000
00001F4000
00006D0000
0000B9AD90
0001FD36F2
0006F406F2
000AB00AE0
001E502F80
005F52CB00
00ABCD8000
01E5000000
07E0000000
0D90000000
2E30000000
ENDCHAR
STARTCHAR ydieresis
ENCODING 255
SWIDTH 549 0
DWIDTH 8 0
BBX 9 16 0 -5
BITMAP
001DC0CD10
001D90CC00
0000000000
0000000000
03E700A900
01F804F600
06F30CF100
0DC05FB000
4F61CF6000
8F1A7F1000
5E92AA0000
0002F30000
000AA00000
008D100000
1CC2000000
0100000000
ENDCHAR
STARTCHAR Amacron
ENCODING 256
SWIDTH 615 0
DWIDTH 9 0
BBX 13 13 -2 0
BITMAP
00000004CCCB10
00000000000000
000000005CE100
0000000AAAC000
000000991E6000
000006C07F1000
00002E20DA0000
0003BEDFFF9000
000AE339F30000
000B700AD00000
005E100DA00000
02D7000D900000
1DA00007E90000
ENDCHAR
STARTCHAR amacron
ENCODING 257
SWIDTH 543 0
DWIDTH 8 0
BBX 8 10 0 -1
BITMAP
001BCCC5
00000000
002BC9D6
02E70AF2
0CB00DB0
4F505F40
7F10CE00
7F08CD10
1CC66FD1
00000310
ENDCHAR
STARTCHAR Abreve
ENCODING 258
SWIDTH 615 0
DWIDTH 9 0
BBX 13 14 -2 0
BITMAP
00000000420120
00000000D71A20
000000005DB300
000000005CE100
0000000AAAC000
000000991E6000
000006C07F1000
00002E20DA0000
0003BEDFFF9000
000AE339F30000
000B700AC00000
005E100DA00000
02D7000DB50000
1DA00007E80000
ENDCHAR
STARTCHAR abreve
ENCODING 259
SWIDTH 543 0
DWIDTH 8 0
BBX 8 12 0 -1
BITMAP
0004A008
0007D075
0001BC60
00000000
002BC9D6
02E70AF2
0CB00DB0
4F505F40
7F10CE00
7F08CD10
1CC66FD1
00000310
ENDCHAR
STARTCHAR Aogonek
ENCODING 260
SWIDTH 615 0
DWIDTH 9 0
BBX 12 14 -2 -3
BITMAP
000000005CE1
0000000AAAC0
000000991E60
000006C07F10
00002E20DA00
0003BEDFFF90
0009E339F300
000B700AC000
005E100D9000
02D7000DC600
1DA00008E600
0000001B3000
0000009B0000
0000008C5000
ENDCHAR
STARTCHAR aogonek
ENCODING 261
SWIDTH 541 0
DWIDTH 8 0
BBX 8 10 0 -3
BITMAP
002BC9D6
03E70BF2
0CB00EA0
4F505F40
7F10CE00
7F08CC10
1CC65FC0
00007A10
0003F200
0003D900
ENDCHAR
STARTCHAR Cacute
ENCODING 262
SWIDTH 533 0
DWIDTH 7 0
BBX 10 14 0 0
BITMAP
0000000061
00000003F5
0000001C70
00005CCA10
0008E30B60
007F401E60
02E901CF20
08F204F600
0EB0000000
2F70000000
4F50000000
4F50000000
1E90194000
04DCD81000
ENDCHAR
STARTCHAR cacute
ENCODING 263
SWIDTH 468 0
DWIDTH 7 0
BBX 8 11 0 0
BITMAP
000000A4
000003F6
00001D90
00003400
003BCC10
04E70E60
0DB06F30
5F504600
7F100000
6F306400
0ADB7000
ENDCHAR
STARTCHAR Ccircumflex
ENCODING 264
SWIDTH 533 0
DWIDTH 7 0
BBX 10 14 0 0
BITMAP
0000000330
0000005ED0
00000AA3D5
00005CCA10
0008E30B60
007F401E60
02E901CF20
08F204F600
0EB0000000
2F70000000
4F50000000
4F50000000
1E90194000
04DCD81000
ENDCHAR
STARTCHAR ccircumflex
ENCODING 265
SWIDTH 468 0
DWIDTH 7 0
BBX 8 11 0 0
BITMAP
000007A0
0001ACF1
002D70D5
00000000
003BCC10
04E70E60
0DB06F30
5F504600
7F100000
6F306400
0ADB7000
ENDCHAR
STARTCHAR Cdotaccent
ENCODING 266
SWIDTH 533 0
DWIDTH 7 0
BBX 9 14 0 0
BITMAP
0000005500
000000FE00
0000005400
00005CCA10
0008E30B60
007F401E60
02E901CF20
08F204F600
0EB0000000
2F70000000
4F50000000
4F50000000
1E90194000
04DCD81000
ENDCHAR
STARTCHAR cdotaccent
ENCODING 267
SWIDTH 468 0
DWIDTH 7 0
BBX 7 11 0 0
BITMAP
00006E50
00006E30
00000000
00000000
003BCC10
04E70E60
0DB06F30
5F504600
7F100000
6F306400
0ADB7000
ENDCHAR
STARTCHAR Ccaron
ENCODING 268
SWIDTH 533 0
DWIDTH 7 0
BBX 10 14 0 0
BITMAP
0000046005
000003F9C8
0000006610
00005CCA10
0008E30B60
007F401E60
02E901CF20
08F204F600
0EB0000000
2F70000000
4F50000000
4F50000000
1E90194000
04DCD81000
ENDCHAR
STARTCHAR ccaron
ENCODING 269
SWIDTH 468 0
DWIDTH 7 0
BBX 9 11 0 0
BITMAP
0002C10850
0000D7AC10
00009D6000
0000000000
003BCC1000
04E70E6000
0DB06F3000
5F50460000
7F10000000
6F30640000
0ADB700000
ENDCHAR
STARTCHAR Dcaron
ENCODING 270
SWIDTH 630 0
DWIDTH 9 0
BBX 10 14 0 0
BITMAP
0000261042
00001CCAB1
0000038200
03ADCCB500
04B3003E50
001DA008D0
007F5007F1
00DC0009F0
04F6000DB0
0AE1005F50
0EA001DB00
3F501CD100
4F23CB2000
1BCC600000
ENDCHAR
STARTCHAR dcaron
ENCODING 271
SWIDTH 557 0
DWIDTH 8 0
BBX 12 12 0 0
BITMAP
000000016062
00000009D1F6
0000001E81F2
0000006F2960
000000AC0000
0019CBE70000
01D908F30000
0AD00BD00000
2F602F900000
5F309F500000
5F25DF200000
1CC92DB30000
ENDCHAR
STARTCHAR Dcroat
ENCODING 272
SWIDTH 630 0
DWIDTH 9 0
BBX 9 11 0 0
BITMAP
03ADDCB400
07E4004E40
0019600AB0
007F5008E0
00EC000AD0
6FFFF81EA0
1DF3307F40
1F9002EA00
4F401DC100
6F14DA1000
1CCC500000
ENDCHAR
STARTCHAR dcroat
ENCODING 273
SWIDTH 557 0
DWIDTH 8 0
BBX 10 12 0 0
BITMAP
0000000160
0000000AD0
00004EEFE3
0000006F10
000000BB00
0019CBE600
01D908F200
0AD00BD000
2F602F9000
5F309F5000
5F25DF2000
1CC92DB300
ENDCHAR
STARTCHAR Emacron
ENCODING 274
SWIDTH 509 0
DWIDTH 7 0
BBX 9 13 0 0
BITMAP
0001BCCC50
0000000000
0002ADC900
004EA10E20
00DC00AE00
04F40AF500
05F1012000
01DA810000
02CF920000
1DE3000000
5F60040000
5F306E0000
09DDB30000
ENDCHAR
STARTCHAR emacron
ENCODING 275
SWIDTH 471 0
DWIDTH 7 0
BBX 7 9 0 0
BITMAP
006CCCA0
00000000
002ACB10
02E60F50
0CC06F30
3F88F700
6F972000
4F304500
09DCA200
ENDCHAR
STARTCHAR Ebreve
ENCODING 276
SWIDTH 509 0
DWIDTH 7 0
BBX 9 14 0 0
BITMAP
0000140030
00007D0580
00002BC700
0002ADC900
004EA10E20
00DC00AE00
04F40AF500
05F1012000
01DA810000
02CF920000
1DE3000000
5F60040000
5F306E0000
09DDB30000
ENDCHAR
STARTCHAR ebreve
ENCODING 277
SWIDTH 471 0
DWIDTH 7 0
BBX 8 11 0 0
BITMAP
000C2062
000F62B0
0006CA10
00000000
002ACB10
02E60F50
0CC06F30
3F88F700
6F972000
4F304500
09DCA200
ENDCHAR
STARTCHAR Edotaccent
ENCODING 278
SWIDTH 509 0
DWIDTH 7 0
BBX 9 14 0 0
BITMAP
0000055000
00002FD000
0000063000
0002ADC900
004EA10E20
00DC00AE00
04F40AF500
05F1012000
01DA810000
02CF920000
1DE3000000
5F60040000
5F306E0000
09DDB30000
ENDCHAR
STARTCHAR edotaccent
ENCODING 279
SWIDTH 471 0
DWIDTH 7 0
BBX 7 11 0 0
BITMAP
0001DB00
0001D900
00000000
00000000
002ACB10
02E60F50
0CC06F30
3F88F700
6F972000
4F304500
09DCA200
ENDCHAR
STARTCHAR Eogonek
ENCODING 280
SWIDTH 509 0
DWIDTH 7 0
BBX 9 14 0 -3
BITMAP
0002ADC900
004EA10E20
00DC00AE00
04F40AF500
05F1012000
01DA810000
02CF920000
1DE3000000
5F60040000
5F306E0000
08DDA20000
0088000000
05E1000000
05D8000000
ENDCHAR
STARTCHAR eogonek
ENCODING 281
SWIDTH 471 0
DWIDTH 7 0
BBX 7 10 0 -3
BITMAP
002BCC10
02E60F50
0CC06F30
3F88F700
6F972000
4F304600
09DDC200
006A1000
03F20000
03D91000
ENDCHAR
STARTCHAR Ecaron
ENCODING 282
SWIDTH 509 0
DWIDTH 7 0
BBX 9 14 0 0
BITMAP
0000450050
00004F9C70
0000076100
0002ADC900
004EA10E20
00DC00AE00
04F40AF500
05F1012000
01DA810000
02CF920000
1DE3000000
5F60040000
5F306E0000
09DDB30000
ENDCHAR
STARTCHAR ecaron
ENCODING 283
SWIDTH 471 0
DWIDTH 7 0
BBX 8 11 0 0
BITMAP
0009603A
0007D5E5
0002E920
00000000
002ACB10
02E60F50
0CC06F30
3F88F700
6F972000
4F304500
09DCA200
ENDCHAR
STARTCHAR Gcircumflex
ENCODING 284
SWIDTH 598 0
DWIDTH 8 0
BBX 10 14 0 0
BITMAP
0000000330
0000006EC0
00000BA3D5
00004CCA00
0007E40A60
006F500D80
02EA008F50
08F304FC00
0DC0018100
2F70021110
4F505FFE20
3F40099000
1E802C2000
04DCA30000
ENDCHAR
STARTCHAR gcircumflex
ENCODING 285
SWIDTH 526 0
DWIDTH 7 0
BBX 8 15 0 -4
BITMAP
000006C0
00019CF2
001D70B7
00000000
002AC973
02E708F4
0CC00BD0
4F602F80
7F20AF30
6F16EE00
1CD8C800
0002F200
000BA000
009D1000
0BA10000
ENDCHAR
STARTCHAR Gbreve
ENCODING 286
SWIDTH 598 0
DWIDTH 8 0
BBX 10 14 0 0
BITMAP
0000015003
000006D059
000001BC80
00004CCA00
0007E40A60
006F500D80
02EA008F50
08F304FC00
0DC0018100
2F70021110
4F505FFE20
3F40099000
1E802C2000
04DCA30000
ENDCHAR
STARTCHAR gbreve
ENCODING 287
SWIDTH 526 0
DWIDTH 7 0
BBX 8 15 0 -4
BITMAP
0003B008
0005E167
0001AC70
00000000
002AC973
02E708F4
0CC00BD0
4F602F80
7F20AF30
6F16EE00
1CD8C800
0002F200
000BA000
009D1000
0BA10000
ENDCHAR
STARTCHAR Gdotaccent
ENCODING 288
SWIDTH 598 0
DWIDTH 8 0
BBX 9 14 0 0
BITMAP
0000005500
000001FE00
0000006400
00004CCA00
0007E40A60
006F500D80
02EA008F50
08F304FC00
0DC0018100
2F70021110
4F505FFE20
3F40099000
1E802C2000
04DCA30000
ENDCHAR
STARTCHAR gdotaccent
ENCODING 289
SWIDTH 526 0
DWIDTH 7 0
BBX 8 15 0 -4
BITMAP
00005E60
00005E40
00000000
00000000
002AC973
02E708F4
0CC00BD0
4F602F80
7F20AF30
6F16EE00
1CD8C800
0002F200
000BA000
009D1000
0BA10000
ENDCHAR
STARTCHAR Gcommaaccent
ENCODING 290
SWIDTH 598 0
DWIDTH 8 0
BBX 9 15 0 -4
BITMAP
00004CCA00
0007E40A60
006F500D80
02EA008F50
08F304FC00
0DC0018100
2F70021110
4F505FFE20
3F40099000
1E802C2000
04DCA30000
0030000000
06F3000000
03E1000000
0A40000000
ENDCHAR
STARTCHAR gcommaaccent
ENCODING 291
SWIDTH 526 0
DWIDTH 7 0
BBX 8 15 0 -4
BITMAP
00000680
00003F20
00003C30
00000000
002AC973
02E708F4
0CC00BD0
4F602F80
7F20AF30
6F16EE00
1CD8C800
0002F200
000BA000
009D1000
0BA10000
ENDCHAR
STARTCHAR Hcircumflex
ENCODING 292
SWIDTH 668 0
DWIDTH 9 0
BBX 11 14 -1 0
BITMAP
000000014000
0000003DF100
000007C3B900
007DE60008A0
0011E9000CB0
0001F7001F80
0005F4004F30
0009F1009D00
007FFBBCFD20
005F5005F100
00AE000AB000
02F7001F6000
0BC0004F2000
5C20002EA200
ENDCHAR
STARTCHAR hcircumflex
ENCODING 293
SWIDTH 555 0
DWIDTH 8 0
BBX 8 14 0 0
BITMAP
0001A600
003CCC00
05C43E20
000D5000
002F6000
005F3000
009E0000
00D94CD1
03F677F3
08E90CE0
0DD14F80
4F509F20
BD00BC00
C5006E90
ENDCHAR
STARTCHAR Hbar
ENCODING 294
SWIDTH 668 0
DWIDTH 9 0
BBX 12 11 -1 0
BITMAP
007DE5000790
0011EA000BC0
0003F9000E90
00DFFCBBCFC6
0007F1008D00
004DFBBCFE20
006F5005F200
009E000AB000
01E7001F6000
0AC0004F3000
5C20002EA200
ENDCHAR
STARTCHAR hbar
ENCODING 295
SWIDTH 555 0
DWIDTH 8 0
BBX 8 12 0 0
BITMAP
00043000
000CB000
03BFDB30
004F3000
008D0000
00C84CD1
02F676F3
07E90CE0
0DD14F80
4F509F20
AD00BC00
C5006E90
ENDCHAR
STARTCHAR Itilde
ENCODING 296
SWIDTH 327 0
DWIDTH 5 0
BBX 9 13 -1 0
BITMAP
0005CA0710
00181AB500
005DD70000
0002BD0000
0000DB0000
0002F70000
0006F40000
000AE00000
001E900000
006F300000
00CB000000
06E3000000
1E50000000
ENDCHAR
STARTCHAR itilde
ENCODING 297
SWIDTH 286 0
DWIDTH 4 0
BBX 7 11 0 0
BITMAP
04C70710
092E1900
2509B200
00000000
05E60000
02F50000
07E00000
0D700000
4F100000
8E500000
5E900000
ENDCHAR
STARTCHAR Imacron
ENCODING 298
SWIDTH 327 0
DWIDTH 5 0
BBX 8 13 -1 0
BITMAP
000ACCC6
00000000
005DD700
0002BD00
0000DB00
0002F700
0006F400
000AE000
001E9000
006F3000
00CB0000
06E30000
1E500000
ENDCHAR
STARTCHAR imacron
ENCODING 299
SWIDTH 286 0
DWIDTH 4 0
BBX 6 9 0 0
BITMAP
2BCCC4
000000
05E600
02F500
07E000
0D7000
4F1000
8E5000
5E9000
ENDCHAR
STARTCHAR Ibreve
ENCODING 300
SWIDTH 327 0
DWIDTH 5 0
BBX 8 14 -1 0
BITMAP
00015003
0005E149
0001BC80
005DD700
0002BD00
0000DB00
0002F700
0006F400
000AE000
001E9000
006F3000
00CB0000
06E30000
1E500000
ENDCHAR
STARTCHAR ibreve
ENCODING 301
SWIDTH 286 0
DWIDTH 4 0
BBX 6 11 0 0
BITMAP
04A008
07E075
01BC60
000000
05E600
02F500
07E000
0D7000
4F1000
8E5000
5E9000
ENDCHAR
STARTCHAR Iogonek
ENCODING 302
SWIDTH 327 0
DWIDTH 5 0
BBX 7 14 -2 -3
BITMAP
0005DD70
00002BC0
00000EA0
00002F70
00006F30
0000AD00
0001F800
0006F200
000DA000
008E2000
03D30000
3D200000
C8000000
AB400000
ENDCHAR
STARTCHAR iogonek
ENCODING 303
SWIDTH 297 0
DWIDTH 4 0
BBX 6 14 -1 -3
BITMAP
0004E7
0004F5
000000
000000
003E80
000F70
005F20
00BA00
02F300
06F400
03EB00
06A000
3F3000
3DA100
ENDCHAR
STARTCHAR Idotaccent
ENCODING 304
SWIDTH 327 0
DWIDTH 5 0
BBX 6 14 -1 0
BITMAP
000055
0000FE
000054
005DD7
0002BD
0000DB
0002F7
0006F4
000AE0
001E90
006F30
00CB00
06E300
1E5000
ENDCHAR
STARTCHAR dotlessi
ENCODING 305
SWIDTH 286 0
DWIDTH 4 0
BBX 4 7 0 0
BITMAP
05E6
02F5
07E0
0D70
4F10
8E50
5E90
ENDCHAR
STARTCHAR IJ
ENCODING 306
SWIDTH 720 0
DWIDTH 10 0
BBX 12 15 -1 -4
BITMAP
005DD707CDD3
0002BD8F62F7
0000DB2305F5
0002F70008F2
0006F4000DD0
000AE0002F80
001E90007F40
006F3000DD00
00CB0005F700
06E3000BE100
1E50004F7000
000000CD1000
000007F40000
00006F600000
0008C4000000
ENDCHAR
STARTCHAR ij
ENCODING 307
SWIDTH 567 0
DWIDTH 8 0
BBX 9 15 0 -4
BITMAP
005E50AE10
006E40BC00
0000000000
0000000000
05E607E500
02F504F500
07E006F200
0D7009E000
4F100DA000
8E502F5000
5E908E0000
0001E70000
0007D10000
003E300000
03C3000000
ENDCHAR
STARTCHAR Jcircumflex
ENCODING 308
SWIDTH 393 0
DWIDTH 6 0
BBX 11 18 -3 -4
BITMAP
000000004100
00000008FA00
000001C84E20
00003ADD8000
0002FB1BE000
0000400DC000
0000002F8000
0000007F4000
000000BE0000
000001FA0000
000007F40000
00000DD00000
00005F600000
0000CD000000
0006F5000000
002EA0000000
02DB10000000
3D8100000000
ENDCHAR
STARTCHAR jcircumflex
ENCODING 309
SWIDTH 282 0
DWIDTH 4 0
BBX 9 15 -3 -4
BITMAP
0000003200
000005FA00
0002AB7E00
0003500610
00006E5000
00004F5000
00005F3000
00008E0000
0000DA0000
0002F50000
0008E00000
001E700000
007D100000
03E3000000
3C40000000
ENDCHAR
STARTCHAR Kcommaaccent
ENCODING 310
SWIDTH 616 0
DWIDTH 9 0
BBX 10 15 -1 -4
BITMAP
00BDC200AB
0033F5009F
0005F400DC
0009F107F3
000DC06E40
002F88C200
007FDD1000
00DD3F7000
04F609F300
0CC001EC10
7C20004DC3
0003100000
001F900000
000D600000
0068000000
ENDCHAR
STARTCHAR kcommaaccent
ENCODING 311
SWIDTH 497 0
DWIDTH 7 0
BBX 7 15 0 -4
BITMAP
000A8000
000D8000
002F5000
006E1000
00AA0BD0
01E40CD0
05D3BD30
0BEE5000
3F9F3000
AD0DD430
C503DD30
01300000
0AE00000
07B00000
1B200000
ENDCHAR
STARTCHAR kgreenlandic
ENCODING 312
SWIDTH 497 0
DWIDTH 7 0
BBX 8 7 0 0
BITMAP
05E40AD1
03F50AF0
06F18F60
0CEDA300
3FDF2000
AF2CA000
C703DC50
ENDCHAR
STARTCHAR Lacute
ENCODING 313
SWIDTH 517 0
DWIDTH 7 0
BBX 10 14 -1 0
BITMAP
0000000052
00000002F6
0000001C80
000005CC30
00005F34B0
0001E908C0
0007F25F80
000DC3FD10
003F606200
009E100000
00E9000000
05F2000000
1DA7ACA100
2EDA88B600
ENDCHAR
STARTCHAR lacute
ENCODING 314
SWIDTH 279 0
DWIDTH 4 0
BBX 7 14 0 0
BITMAP
00000610
00005F30
0003C500
000D2000
003F3000
007E0000
00CA0000
02F60000
06F10000
0BB00000
2F700000
6F200000
8E000000
4E900000
ENDCHAR
STARTCHAR Lcommaaccent
ENCODING 315
SWIDTH 517 0
DWIDTH 7 0
BBX 9 15 -1 -4
BITMAP
000005CC30
00005F34B0
0001E908C0
0007F25F80
000DC3FD10
003F606200
009E100000
00E9000000
05F2000000
1DA7ACA100
2EDA88B600
0031000000
01F9000000
00D5000000
0680000000
ENDCHAR
STARTCHAR lcommaaccent
ENCODING 316
SWIDTH 279 0
DWIDTH 4 0
BBX 5 15 0 -4
BITMAP
000D50
002F60
005F20
00AD00
00E800
04F200
0AC000
1E7000
5F2000
8E0000
4EA100
130000
8F1000
5D0000
B30000
ENDCHAR
STARTCHAR Lcaron
ENCODING 317
SWIDTH 517 0
DWIDTH 7 0
BBX 12 13 -1 0
BITMAP
0000000000D7
0000000000D7
000005CC33D1
00005F34B520
0001E908C000
0007F25F8000
000DC3FD1000
003F60620000
009E10000000
00E900000000
05F200000000
1DA7ACA10000
2EDA88B60000
ENDCHAR
STARTCHAR lcaron
ENCODING 318
SWIDTH 467 0
DWIDTH 7 0
BBX 8 12 0 0
BITMAP
00061044
001F70CA
003F40C6
007F1590
00BB0000
01F60000
06F10000
0BB00000
1F600000
5F200000
8E210000
4E900000
ENDCHAR
STARTCHAR Ldot
ENCODING 319
SWIDTH 668 0
DWIDTH 9 0
BBX 11 11 -1 0
BITMAP
000005CC3000
00005F34B000
0001E908C000
0007F25F8000
000DC3FD1000
003F60622940
009E10007F70
00E900000400
05F200000000
1DA7ACA10000
2EDA88B60000
ENDCHAR
STARTCHAR ldot
ENCODING 320
SWIDTH 489 0
DWIDTH 7 0
BBX 7 12 0 0
BITMAP
00061000
001F7000
003F4000
007F1000
00BB0000
01F60000
06F11730
0BB07FA0
1F601820
5F200000
8E210000
4E900000
ENDCHAR
STARTCHAR Lslash
ENCODING 321
SWIDTH 517 0
DWIDTH 7 0
BBX 9 11 -1 0
BITMAP
000005CC30
00005F34B0
0001E907C0
0007F33E90
000DC2EE20
003F71B400
05CFC70000
19F8000000
05E1000000
1DA8BDB200
2EDA88B600
ENDCHAR
STARTCHAR lslash
ENCODING 322
SWIDTH 279 0
DWIDTH 4 0
BBX 7 12 0 0
BITMAP
00530000
007FDA20
003F4000
007E0000
00CA0000
02F60000
06F10000
0BB00000
1F700000
5F200000
8E000000
4E900000
ENDCHAR
STARTCHAR Nacute
ENCODING 323
SWIDTH 708 0
DWIDTH 10 0
BBX 11 14 0 0
BITMAP
000000000610
000000003F60
00000001C700
0001AE004E60
0009FD000EC0
004DBC000DB0
00B6BC001F60
03E1AD006E10
09909E00B800
0E507F23E100
4F104F697000
8C000EBD1000
A90009F80000
860001C40000
ENDCHAR
STARTCHAR nacute
ENCODING 324
SWIDTH 561 0
DWIDTH 8 0
BBX 8 11 0 0
BITMAP
000000B2
000006F3
00002E60
00004200
05E43BD1
02F785F4
06E90BF1
0CE12F90
3F507F30
AD009D00
C6005E90
ENDCHAR
STARTCHAR Ncommaaccent
ENCODING 325
SWIDTH 708 0
DWIDTH 10 0
BBX 11 15 0 -4
BITMAP
0001AE004E60
0009FD000EC0
004DBC000DB0
00B6BC001F60
03E1AD006E10
09909E00B800
0E507F23E100
4F104F697000
8C000EBD1000
A90009F80000
860001C40000
000130000000
0009F1000000
0006C0000000
001B20000000
ENDCHAR
STARTCHAR ncommaaccent
ENCODING 326
SWIDTH 561 0
DWIDTH 8 0
BBX 8 11 0 -4
BITMAP
05E43BD1
02F785F4
06E90BF1
0CE12F90
3F507F30
AD009D00
C6005E90
01300000
07F20000
04E00000
0B300000
ENDCHAR
STARTCHAR Ncaron
ENCODING 327
SWIDTH 708 0
DWIDTH 10 0
BBX 11 14 0 0
BITMAP
000000460050
0000002EAC90
000000066100
0001AE004E60
0009FD000EC0
004DBC000DB0
00B6BC001F60
03E1AD006E10
09909E00B800
0E507F23E100
4F104F697000
8C000EBD1000
A90009F80000
860001C40000
ENDCHAR
STARTCHAR ncaron
ENCODING 328
SWIDTH 561 0
DWIDTH 8 0
BBX 9 11 0 0
BITMAP
0002C10850
0000D7AC10
00009D6000
0000000000
05E43BD100
02F785F400
06E90BF100
0CE12F9000
3F507F3000
AD009D0000
C6005E9000
ENDCHAR
STARTCHAR Eng
ENCODING 330
SWIDTH 698 0
DWIDTH 10 0
BBX 11 15 0 -4
BITMAP
0001BC005E40
000BFB001FA0
006CD9000F90
00D5D9001F70
05D0DA005F30
0B80CC009D00
1F30AF00D700
6E006F43F100
AA002F999000
C7000AEE2000
A40004F80000
00000BC00000
00007E200000
0007E3000000
00AB20000000
ENDCHAR
STARTCHAR eng
ENCODING 331
SWIDTH 561 0
DWIDTH 8 0
BBX 8 11 0 -4
BITMAP
05E43BD1
02F784F4
06E906F1
0CE10BC0
3F501F70
AD007F20
C601EA00
0007F200
001E8000
00BC0000
09A10000
ENDCHAR
STARTCHAR Omacron
ENCODING 332
SWIDTH 655 0
DWIDTH 9 0
BBX 10 13 0 0
BITMAP
000008CCC8
0000000000
00004BCD50
0006F604F2
004F7001F5
00DC0002F5
06F50005F3
0BE0000AE0
0F90002F90
2F50009E20
1F4004F700
0C803E8000
02BCC50000
ENDCHAR
STARTCHAR omacron
ENCODING 333
SWIDTH 514 0
DWIDTH 7 0
BBX 8 9 0 0
BITMAP
000ACCC6
00000000
003BCC20
03E80D90
0DC00DA0
4F502F70
7F109F20
6F14F600
0ADC5000
ENDCHAR
STARTCHAR Obreve
ENCODING 334
SWIDTH 655 0
DWIDTH 9 0
BBX 10 14 0 0
BITMAP
0000006003
000003F23A
0000009C91
00004BCD50
0006F604F2
004F7001F5
00DC0002F5
06F50005F3
0BE0000AE0
0F90002F90
2F50009E20
1F4004F700
0C803E8000
02BCC50000
ENDCHAR
STARTCHAR obreve
ENCODING 335
SWIDTH 514 0
DWIDTH 7 0
BBX 8 11 0 0
BITMAP
0003B008
0005E167
0000AC70
00000000
003BCC20
03E80D90
0DC00DA0
4F502F70
7F109F20
6F14F600
0ADC5000
ENDCHAR
STARTCHAR Ohungarumlaut
ENCODING 336
SWIDTH 655 0
DWIDTH 9 0
BBX 11 14 0 0
BITMAP
000000260710
0000008A2F20
000004B1B500
00004BCD5000
0006F604F200
004F7001F500
00DC0002F500
06F50005F300
0BE0000AE000
0F90002F9000
2F50009E2000
1F4004F70000
0C803E800000
02BCC5000000
ENDCHAR
STARTCHAR ohungarumlaut
ENCODING 337
SWIDTH 514 0
DWIDTH 7 0
BBX 8 11 0 0
BITMAP
0000560B
0000D76D
0009A3D3
00150520
003BCC20
03E80D90
0DC00DA0
4F502F70
7F109F20
6F14F600
0ADC5000
ENDCHAR
STARTCHAR OE
ENCODING 338
SWIDTH 900 0
DWIDTH 13 0
BBX 14 11 1 0
BITMAP
00006CCC6ADCA1
000BD209FC20C5
009F300CE107F2
04F7002F707F80
0BE1002F401300
1F80000BB82000
5F40001AFA3000
7F1000BF400000
7E0006F8003100
2F306FF705E200
05CCB47DEB4000
ENDCHAR
STARTCHAR oe
ENCODING 339
SWIDTH 777 0
DWIDTH 11 0
BBX 11 7 0 0
BITMAP
0019CD45CD60
01CC18ED17D0
08F209F60CB0
0EA00DE4BD30
2F604FD96100
1F52DFB01810
07DD95DCC700
ENDCHAR
STARTCHAR Racute
ENCODING 340
SWIDTH 623 0
DWIDTH 9 0
BBX 10 15 -1 -1
BITMAP
0000000061
00000004F4
0000002C60
0007CDCB60
004E7101D6
0000CA00BB
0004F601E9
0009E11BE2
000EC7DD30
005FEF7100
00AE1DA000
02F706F400
0AD100DC10
4D20004EE3
0000000010
ENDCHAR
STARTCHAR racute
ENCODING 341
SWIDTH 407 0
DWIDTH 6 0
BBX 7 11 0 0
BITMAP
00000A40
00003F60
0001D900
00034000
07E27E30
04F7CD20
07EA0000
0BE20000
2F800000
8E100000
99000000
ENDCHAR
STARTCHAR Rcommaaccent
ENCODING 342
SWIDTH 623 0
DWIDTH 9 0
BBX 10 15 -1 -4
BITMAP
0007CDCB60
004E7101D6
0000CA00BB
0004F601E9
0009E11BE2
000EC7DD30
005FEF7100
00AE1DA000
02F706F400
0AD100DC10
4D20004EE3
0003000010
003F600000
001F300000
0086000000
ENDCHAR
STARTCHAR rcommaaccent
ENCODING 343
SWIDTH 407 0
DWIDTH 6 0
BBX 8 11 -1 -4
BITMAP
007E37E3
005F7CD2
007EA000
00CE2000
02F80000
08E10000
09900000
03000000
4F500000
2F200000
95000000
ENDCHAR
STARTCHAR Rcaron
ENCODING 344
SWIDTH 623 0
DWIDTH 9 0
BBX 10 15 -1 -1
BITMAP
0000045005
000004F9C7
0000007610
0007CDCB60
004E7101D6
0000CA00BB
0004F601E9
0009E11BE2
000EC7DD30
005FEF7100
00AE1DA000
02F706F400
0AD100DC10
4D20004EE3
0000000010
ENDCHAR
STARTCHAR rcaron
ENCODING 345
SWIDTH 407 0
DWIDTH 6 0
BBX 8 11 0 0
BITMAP
000C3067
000B98D2
0007D710
00000000
07E27E30
04F7CD20
07EA0000
0BE20000
2F800000
8E100000
99000000
ENDCHAR
STARTCHAR Sacute
ENCODING 346
SWIDTH 474 0
DWIDTH 7 0
BBX 9 14 0 0
BITMAP
0000000610
0000004F40
000002C600
0006DC9100
008D20A700
02F600BA00
06F304F700
06F50ED100
03FC021000
00AF700000
001DE00000
5A06F10000
9C05B00000
3CCA100000
ENDCHAR
STARTCHAR sacute
ENCODING 347
SWIDTH 423 0
DWIDTH 6 0
BBX 7 11 0 0
BITMAP
00000950
00002F70
0001CA00
00034000
019CD600
08D08D00
08F23300
02FC0000
117F5000
B72F5000
6ED80000
ENDCHAR
STARTCHAR Scircumflex
ENCODING 348
SWIDTH 474 0
DWIDTH 7 0
BBX 9 14 0 0
BITMAP
0000003200
000006FB00
0000B93E40
0006DC9100
008D20A700
02F600BA00
06F304F700
06F50ED100
03FC021000
00AF700000
001DE00000
5A06F10000
9C05B00000
3CCA100000
ENDCHAR
STARTCHAR scircumflex
ENCODING 349
SWIDTH 423 0
DWIDTH 6 0
BBX 7 11 0 0
BITMAP
00002C30
0005DD70
00AA26C0
00000000
019CD600
08D08D00
08F23300
02FC0000
117F5000
B72F5000
6ED80000
ENDCHAR
STARTCHAR Scedilla
ENCODING 350
SWIDTH 474 0
DWIDTH 7 0
BBX 8 14 0 -3
BITMAP
0007DCA1
009D10A7
03F500C9
06F309F5
05F70970
01DE2000
003FA000
3707F100
9B04E000
5FBD4000
03D10000
03F00000
2EB00000
03000000
ENDCHAR
STARTCHAR scedilla
ENCODING 351
SWIDTH 423 0
DWIDTH 6 0
BBX 6 10 0 -3
BITMAP
009CD6
07D08D
08F233
03FB00
008F40
962F50
8EC800
086000
1C8000
8D2000
ENDCHAR
STARTCHAR Scaron
ENCODING 352
SWIDTH 474 0
DWIDTH 7 0
BBX 9 14 0 0
BITMAP
0000450050
00004F9C70
0000076100
0006DC9100
008D20A700
02F600BA00
06F304F700
06F50ED100
03FC021000
00AF700000
001DE00000
5A06F10000
9C05B00000
3CCA100000
ENDCHAR
STARTCHAR scaron
ENCODING 353
SWIDTH 423 0
DWIDTH 6 0
BBX 8 11 0 0
BITMAP
0009603A
0007C5E5
0003E920
00000000
019CD600
08D08D00
08F23300
02FC0000
117F5000
B72F5000
6ED80000
ENDCHAR
STARTCHAR Tcommaaccent
ENCODING 354
SWIDTH 471 0
DWIDTH 7 0
BBX 9 15 0 -4
BITMAP
05EBA61080
0E808FBC50
0D10EB0000
0003F70000
0008F20000
000CD00000
001F800000
006F300000
00BC000000
04F4000000
0D70000000
0120000000
0AE0000000
08B0000000
1B10000000
ENDCHAR
STARTCHAR tcommaaccent
ENCODING 355
SWIDTH 358 0
DWIDTH 5 0
BBX 6 13 0 -4
BITMAP
000610
007E20
0AFDB3
06F100
0BB000
0F6000
3F3000
4F5830
1CE800
030000
6F3000
3E1000
A40000
ENDCHAR
STARTCHAR Tcaron
ENCODING 356
SWIDTH 471 0
DWIDTH 7 0
BBX 9 14 1 0
BITMAP
0002610410
0001CBBB10
0000382000
5EBA610800
E808FBC500
D10EB00000
003F700000
008F200000
00CD000000
01F8000000
06F3000000
0BC0000000
4F40000000
D700000000
ENDCHAR
STARTCHAR tcaron
ENCODING 357
SWIDTH 497 0
DWIDTH 7 0
BBX 8 12 1 0
BITMAP
00000061
000003F5
000002E1
007C0A50
01E80000
3DFB9000
0DA00000
2F400000
6E000000
9B000000
AC490000
5EC30000
ENDCHAR
STARTCHAR Tbar
ENCODING 358
SWIDTH 471 0
DWIDTH 7 0
BBX 8 11 1 0
BITMAP
5EBA6108
E808FBC5
D10DB000
002F7000
006F3000
ACEFA000
01F80000
05F30000
0BC00000
3F400000
D7000000
ENDCHAR
STARTCHAR tbar
ENCODING 359
SWIDTH 358 0
DWIDTH 5 0
BBX 6 9 0 0
BITMAP
001D30
008E10
0AFDB3
06F100
6EECA1
1F6000
3F2000
4F5830
1CE800
ENDCHAR
STARTCHAR Utilde
ENCODING 360
SWIDTH 624 0
DWIDTH 9 0
BBX 10 13 0 0
BITMAP
00002AC335
0000817C80
004E8000A8
000F9003F6
004F500AE1
00AE002F90
02F8009F40
08F202FE00
0DB00AFA00
4F503CF600
9E00B5F300
AD0836F100
5EA302DB30
ENDCHAR
STARTCHAR utilde
ENCODING 361
SWIDTH 553 0
DWIDTH 8 0
BBX 9 11 0 0
BITMAP
00019C1160
00082B6730
000704C500
0000000000
04E600B800
02F705F400
07F20DC000
0DB07F6000
5F53CF1000
9E2A8D0000
6E915E9000
ENDCHAR
STARTCHAR Umacron
ENCODING 362
SWIDTH 624 0
DWIDTH 9 0
BBX 10 13 0 0
BITMAP
00006CCCA0
0000000000
004E8000A8
000F9003F6
004F500AE1
00AE002F90
02F8009F40
08F202FE00
0DB00AFA00
4F503CF600
9E00B5F300
AD0836F100
5EA302DB30
ENDCHAR
STARTCHAR umacron
ENCODING 363
SWIDTH 553 0
DWIDTH 8 0
BBX 8 9 0 0
BITMAP
0007CCCA
00000000
04E600B8
02F705F4
07F20DC0
0DB07F60
5F53CF10
9E2A8D00
6E915E90
ENDCHAR
STARTCHAR Ubreve
ENCODING 364
SWIDTH 624 0
DWIDTH 9 0
BBX 10 14 0 0
BITMAP
0000051021
00000F51B1
000007CA20
004E8000A8
000F9003F6
004F500AE1
00AE002F90
02F8009F40
08F202FE00
0DB00AFA00
4F503CF600
9E00B5F300
AD0836F100
5EA302DB30
ENDCHAR
STARTCHAR ubreve
ENCODING 365
SWIDTH 553 0
DWIDTH 8 0
BBX 9 11 0 0
BITMAP
0000C10620
0001F52A00
00007C9100
0000000000
04E600B800
02F705F400
07F20DC000
0DB07F6000
5F53CF1000
9E2A8D0000
6E915E9000
ENDCHAR
STARTCHAR Uring
ENCODING 366
SWIDTH 624 0
DWIDTH 9 0
BBX 10 14 0 0
BITMAP
000002AC50
00000B76C0
00000E5A90
004E85B8B8
000F9003F6
004F500AE1
00AE002F90
02F8009F40
08F202FE00
0DB00AFA00
4F503CF600
9E00B6F300
AD0846F100
5EA302DB30
ENDCHAR
STARTCHAR uring
ENCODING 367
SWIDTH 553 0
DWIDTH 8 0
BBX 8 11 0 0
BITMAP
00005CD6
0000F39A
00009CA1
00000000
04E600B8
02F705F4
07F20DC0
0DB07F60
5F53CF10
9E2A8D00
6E915E90
ENDCHAR
STARTCHAR Uhungarumlaut
ENCODING 368
SWIDTH 624 0
DWIDTH 9 0
BBX 10 14 0 0
BITMAP
0000017053
000005D0D5
00002B3880
004E8000A8
000F9003F6
004F500AE1
00AE002F90
02F8009F40
08F202FE00
0DB00AFA00
4F503CF600
9E00B5F300
AD0836F100
5EA302DB30
ENDCHAR
STARTCHAR uhungarumlaut
ENCODING 369
SWIDTH 553 0
DWIDTH 8 0
BBX 9 11 0 0
BITMAP
00002A0840
00008B2F30
0004D2C700
0006134000
04E600B800
02F705F400
07F20DC000
0DB07F6000
5F53CF1000
9E2A8D0000
6E915E9000
ENDCHAR
STARTCHAR Uogonek
ENCODING 370
SWIDTH 684 0
DWIDTH 10 0
BBX 11 14 0 -3
BITMAP
000CD1004E10
0008F100CC00
000DB004F600
004F600BF100
00AE103FB000
01F900BF6000
07F203FF1000
0DB00BCC0000
2F6067C90000
4F4380E80000
1CC7009E9000
000001B80000
000009C00000
000008C60000
ENDCHAR
STARTCHAR uogonek
ENCODING 371
SWIDTH 553 0
DWIDTH 8 0
BBX 8 10 0 -3
BITMAP
04E600B8
02F705F4
07F20DC0
0DB07F60
5F53CF10
9E2A8D00
6E915FB0
00007B10
0004F200
0004D900
ENDCHAR
STARTCHAR Wcircumflex
ENCODING 372
SWIDTH 941 0
DWIDTH 13 0
BBX 13 14 1 0
BITMAP
00000000410000
00000008F90000
000001C85E2000
7DC70000002D90
227F1001101ED0
01ED004E900CE0
07F704FD100CC0
0DE13EF6000D90
4F80DEF1003F50
9F28BBC0008D00
DB3D1D9001E500
F7B40E700A9000
EA900D809A0000
8D1005DB600000
ENDCHAR
STARTCHAR wcircumflex
ENCODING 373
SWIDTH 750 0
DWIDTH 11 0
BBX 11 11 0 0
BITMAP
0000004C1000
000007DE5000
0000B919A000
000000000000
07E501607E20
02F60AD04F40
05F14F702F20
0BA1DF105C00
2F49CC00C400
6FA78D2A8000
5E503ED60000
ENDCHAR
STARTCHAR Ycircumflex
ENCODING 374
SWIDTH 580 0
DWIDTH 8 0
BBX 10 18 0 -4
BITMAP
0000001500
000003DF20
00007C3A90
004E7000B8
001F9003F5
005F400BD0
00BE003F80
02F800AF30
08F203FD00
0EA00AF700
5F404DF200
9E00B9C000
BC094E6000
5EA37D0000
0001E50000
000BA00000
00AC100000
2C91000000
ENDCHAR
STARTCHAR ycircumflex
ENCODING 375
SWIDTH 549 0
DWIDTH 8 0
BBX 8 16 0 -5
BITMAP
000006B0
00019CF2
001D70C6
00000000
03E700A9
01F804F6
06F30CF1
0DC05FB0
4F61CF60
8F1A7F10
5E92AA00
0002F300
000AA000
008D1000
1CC20000
01000000
ENDCHAR
STARTCHAR Ydieresis
ENCODING 376
SWIDTH 580 0
DWIDTH 8 0
BBX 10 17 0 -4
BITMAP
00009E27E4
0000AD18E2
004E7000B8
001F9003F5
005F400BD0
00BE003F80
02F800AF30
08F203FD00
0EA00AF700
5F404DF200
9E00B9C000
BC094E6000
5EA37D0000
0001E50000
000BA00000
00AC100000
2C91000000
ENDCHAR
STARTCHAR Zacute
ENCODING 377
SWIDTH 501 0
DWIDTH 7 0
BBX 10 14 -1 0
BITMAP
0000000340
0000000CB0
0000009A10
0039115BD2
001DFFCBF3
0001213E80
000002E900
00002DA000
0001CA0000
000BA00000
009B000000
05D1000000
1EAABCC200
1EB4005700
ENDCHAR
STARTCHAR zacute
ENCODING 378
SWIDTH 430 0
DWIDTH 6 0
BBX 7 11 0 0
BITMAP
00000770
00001EA0
0000AC10
00015000
05D99D40
0055BE20
001AE400
01CD2000
1CC10000
9E675000
BC89D100
ENDCHAR
STARTCHAR Zdotaccent
ENCODING 379
SWIDTH 501 0
DWIDTH 7 0
BBX 10 14 -1 0
BITMAP
0000027100
00000AF500
0000026000
0039115BD1
001DFFCBF3
0001213E80
000002EA00
00002DB000
0001CB1000
000BC10000
009C100000
05E2010000
1EAADFE300
1EC8559700
ENDCHAR
STARTCHAR zdotaccent
ENCODING 380
SWIDTH 430 0
DWIDTH 6 0
BBX 7 11 0 0
BITMAP
0005E500
0005E400
00000000
00000000
05D99D40
0055BE20
001AE400
01CD2000
1CC10000
9E675000
BC89D100
ENDCHAR
STARTCHAR Zcaron
ENCODING 381
SWIDTH 501 0
DWIDTH 7 0
BBX 10 14 -1 0
BITMAP
0000262032
00000BCAC2
0000038300
0039115BD2
001DFFCBF3
0001213E80
000002E900
00002DA000
0001CA0000
000BA00000
009B000000
05D1000000
1EAABCC200
1EB4005700
ENDCHAR
STARTCHAR zcaron
ENCODING 382
SWIDTH 430 0
DWIDTH 6 0
BBX 8 11 0 0
BITMAP
002C2075
000D89C2
0008D600
00000000
05D99D40
0055BE20
001AE400
01CD2000
1CC10000
9E675000
BC89D100
ENDCHAR
STARTCHAR florin
ENCODING 402
SWIDTH 466 0
DWIDTH 7 0
BBX 12 15 -3 -4
BITMAP
000000008C70
00000009C1C1
0000003F25F2
000000AB0DA0
000002F60100
00004BFFD100
00008EB32000
00001F700000
00004F300000
00008E000000
0000CA000000
0001F5000000
0207E1000000
8B1D70000000
4DE900000000
ENDCHAR
STARTCHAR AEacute
ENCODING 508
SWIDTH 878 0
DWIDTH 12 0
BBX 15 14 -1 0
BITMAP
0000000000061000
00000000005F3000
0000000002C60000
00000007CEBECA10
0000009A5FD20C50
000006D1CF207F20
00002E41F907F800
0000BB03F5013000
0005F301F5000000
007EDABCFEB30000
00AC0009F7000000
03F4002F90031000
1CA0002F705E2000
CB100007EEB40000
ENDCHAR
STARTCHAR aeacute
ENCODING 509
SWIDTH 770 0
DWIDTH 11 0
BBX 11 11 0 0
BITMAP
0000001B2000
0000006F3000
000002E60000
000005200000
002BCADCCD20
02E70AF71F80
0CB00DD05F70
4F405F74ED10
7F10CFED8100
7F18BF501500
1CC808DCC400
ENDCHAR
STARTCHAR Scommaaccent
ENCODING 536
SWIDTH 474 0
DWIDTH 7 0
BBX 8 15 0 -4
BITMAP
0006DC91
008D20A7
02F600BA
06F304F7
06F50ED1
03FC0210
00AF7000
001DE000
5A06F100
9C05B000
3CCA1000
01300000
09F00000
07C00000
1B200000
ENDCHAR
STARTCHAR scommaaccent
ENCODING 537
SWIDTH 423 0
DWIDTH 6 0
BBX 6 11 0 -4
BITMAP
019CD6
08D08D
08F233
02FC00
117F50
B72F50
6ED800
031000
1F8000
0E4000
670000
ENDCHAR
STARTCHAR dotlessj
ENCODING 567
SWIDTH 277 0
DWIDTH 4 0
BBX 7 11 -3 -4
BITMAP
00007E40
00005F50
00006F20
00009D00
0000E900
0003F400
0009D000
001E6000
008C0000
04E30000
3C300000
ENDCHAR
STARTCHAR circumflex
ENCODING 710
SWIDTH 354 0
DWIDTH 5 0
BBX 5 3 0 8
BITMAP
002C30
05DD80
9B26C0
ENDCHAR
STARTCHAR caron
ENCODING 711
SWIDTH 381 0
DWIDTH 5 0
BBX 6 3 0 8
BITMAP
3C11A3
0E9D70
077100
ENDCHAR
STARTCHAR breve
ENCODING 728
SWIDTH 344 0
DWIDTH 5 0
BBX 5 2 0 9
BITMAP
4D0290
2BC910
ENDCHAR
STARTCHAR dotaccent
ENCODING 729
SWIDTH 217 0
DWIDTH 3 0
BBX 2 2 1 9
BITMAP
CD
CB
ENDCHAR
STARTCHAR ring
ENCODING 730
SWIDTH 402 0
DWIDTH 6 0
BBX 5 4 1 7
BITMAP
04CD40
0E3990
2F1C60
09C800
ENDCHAR
STARTCHAR ogonek
ENCODING 731
SWIDTH 311 0
DWIDTH 4 0
BBX 4 5 0 -3
BITMAP
0001
0087
0B80
4F20
3D90
ENDCHAR
STARTCHAR tilde
ENCODING 732
SWIDTH 397 0
DWIDTH 6 0
BBX 7 2 0 9
BITMAP
06CB1910
170AB500
ENDCHAR
STARTCHAR hungarumlaut
ENCODING 733
SWIDTH 392 0
DWIDTH 5 0
BBX 6 4 0 8
BITMAP
003012
01F299
0AA3E3
692B30
ENDCHAR
STARTCHAR pi
ENCODING 960
SWIDTH 640 0
DWIDTH 9 0
BBX 10 7 -1 0
BITMAP
008BFEFFFC
0002E03F50
0008908E00
001E40D900
009D01F600
07F502F730
1E9000CD30
ENDCHAR
STARTCHAR uni1E02
ENCODING 7682
SWIDTH 551 0
DWIDTH 8 0
BBX 9 14 0 0
BITMAP
0000046000
00000FF000
0000054000
017CDCC500
0AD5005F20
013F501F50
00CF304F40
04FA01CD00
09F33CE300
0EFEEE2000
3F601CA000
5F100CB000
4E018F4000
0BEDA30000
ENDCHAR
STARTCHAR uni1E03
ENCODING 7683
SWIDTH 525 0
DWIDTH 7 0
BBX 8 12 0 0
BITMAP
00060000
003F33E9
006F12E7
00AB0000
00E60000
04F6CE40
09EA0CB0
0ED10CC0
3F501F90
6E007F30
5D05F700
0AEC5000
ENDCHAR
STARTCHAR uni1E0A
ENCODING 7690
SWIDTH 630 0
DWIDTH 9 0
BBX 10 14 0 0
BITMAP
0000037100
00000BF400
0000036000
03ADCCB500
04B3003E50
001DA008D0
007F5007F1
00DC0009F0
04F6000DB0
0AE1005F50
0EA001DB00
3F501CD100
4F23CB2000
1BCC600000
ENDCHAR
STARTCHAR uni1E0B
ENCODING 7691
SWIDTH 557 0
DWIDTH 8 0
BBX 9 12 0 0
BITMAP
0000000160
003E8009D0
003E601E80
0000006F20
000000AC00
0019CBE700
01D908F300
0AD00BD000
2F602F9000
5F309F5000
5F25DF2000
1CC92DB300
ENDCHAR
STARTCHAR uni1E1E
ENCODING 7710
SWIDTH 518 0
DWIDTH 7 0
BBX 9 14 0 0
BITMAP
0000027200
000008F600
0000027100
07EBA62180
2F60BEFF50
2E03F51100
0109F10000
000EC00000
02BFEC8000
01BF100000
00EA000000
05F4000000
1DA0000000
7B10000000
ENDCHAR
STARTCHAR uni1E1F
ENCODING 7711
SWIDTH 393 0
DWIDTH 6 0
BBX 9 16 -1 -2
BITMAP
0000058000
00000DF100
000008EA10
00004F2C70
0000BB2F70
0001F75D20
0005F30000
0009E00000
01BFEC9000
017F400000
007E000000
00CA000000
02F6000000
07F1000000
0DA0000000
2C20000000
ENDCHAR
STARTCHAR uni1E40
ENCODING 7744
SWIDTH 931 0
DWIDTH 13 0
BBX 16 14 -2 0
BITMAP
0000000000037000
00000000000CF300
0000000000036000
00000004CD001AE1
0000004DDB00CDD0
000002D4F6089D80
00000A87F12E4F40
00004E1BC0A79E00
0000C70E82D0DA00
0005D13F5962F600
000D604F4D06F200
008D006F9609E000
04F4006FC009E000
4E70003E3003EB30
ENDCHAR
STARTCHAR uni1E41
ENCODING 7745
SWIDTH 814 0
DWIDTH 11 0
BBX 11 11 0 0
BITMAP
000000BD1000
000000CC0000
000000000000
000000000000
05E53BD07D80
02F793E84BC0
06E908E73F70
0CE21EB09E10
3F506F20E900
AD00CA01F830
C600D400BE30
ENDCHAR
STARTCHAR uni1E56
ENCODING 7766
SWIDTH 553 0
DWIDTH 8 0
BBX 10 14 -1 0
BITMAP
0000000630
0000004FA0
0000000720
0007CDCB50
007F7102F5
0012B700D9
0004F502F8
000AE11BE2
001EA4CE40
005FFD8200
00BD000000
03F7000000
0BC0000000
5D20000000
ENDCHAR
STARTCHAR uni1E57
ENCODING 7767
SWIDTH 550 0
DWIDTH 8 0
BBX 9 15 -1 -4
BITMAP
00000CD000
00000CB000
0000000000
0000000000
009E3BD900
006FC26F10
009F406F20
00DA00AE00
02F502F700
06F52CB000
0ACCD80000
0E60000000
4F20000000
AC00000000
C500000000
ENDCHAR
STARTCHAR uni1E60
ENCODING 7776
SWIDTH 474 0
DWIDTH 7 0
BBX 8 14 0 0
BITMAP
00000550
00002FD0
00000630
0006DC91
008D20A7
02F600BA
06F304F7
06F50ED1
03FC0210
00AF7000
001DE000
5A06F100
9C05B000
3CCA1000
ENDCHAR
STARTCHAR uni1E61
ENCODING 7777
SWIDTH 423 0
DWIDTH 6 0
BBX 6 11 0 0
BITMAP
0001DB
0001E9
000000
000000
019CD6
08D08D
08F233
02FC00
117F50
B72F50
6ED800
ENDCHAR
STARTCHAR uni1E6A
ENCODING 7786
SWIDTH 430 0
DWIDTH 6 0
BBX 9 14 0 0
BITMAP
0000055000
00001FD000
0000063000
09EA940260
5F30DDCB10
4B04F60000
0008F20000
000DC00000
002F800000
006F300000
00BD000000
01F7000000
09D1000000
4D30000000
ENDCHAR
STARTCHAR uni1E6B
ENCODING 7787
SWIDTH 358 0
DWIDTH 5 0
BBX 5 11 1 0
BITMAP
003E80
003E60
009800
03F500
5EEB70
1F6000
6F1000
AB0000
D80000
D95700
8FB100
ENDCHAR
STARTCHAR Wgrave
ENCODING 7808
SWIDTH 941 0
DWIDTH 13 0
BBX 13 14 1 0
BITMAP
00000015000000
0000007F100000
0000001AA00000
7DC70000002D90
227F1002101ED0
01ED005E800CE0
07F705FD100CC0
0DE13FF6000E90
4F71DDE1003F50
9E1AABB0009D00
DA4D1D8002F500
F6C40E700C9000
EC900D92BA0000
8D1005ED600000
ENDCHAR
STARTCHAR wgrave
ENCODING 7809
SWIDTH 750 0
DWIDTH 11 0
BBX 11 11 0 0
BITMAP
000008B00000
00000AC00000
000004E00000
000000410000
07E501607E20
02F60AD04F40
05F14F702F20
0BA1DF105C00
2F49CC00C400
6FA78D2A8000
5E503ED60000
ENDCHAR
STARTCHAR Wacute
ENCODING 7810
SWIDTH 941 0
DWIDTH 13 0
BBX 13 14 1 0
BITMAP
00000000160000
000000007F1000
00000004C40000
7DC70000002D90
227F1001101ED0
01ED004E900CE0
07F704FD100CC0
0DE13EF6000D90
4F80DEF1003F50
9F28BBC0008D00
DB3D1D9001E500
F7B40E700A9000
EA900D809A0000
8D1005DB600000
ENDCHAR
STARTCHAR wacute
ENCODING 7811
SWIDTH 750 0
DWIDTH 11 0
BBX 11 11 0 0
BITMAP
0000002A0000
0000009E1000
000005E40000
000006100000
07E501607E20
02F60AD04F40
05F14F702F20
0BA1DF105C00
2F49CC00C400
6FA78D2A8000
5E503ED60000
ENDCHAR
STARTCHAR Wdieresis
ENCODING 7812
SWIDTH 941 0
DWIDTH 13 0
BBX 13 14 1 0
BITMAP
00000163064000
000005F93FC000
00000172073000
7DC70000002D90
227F1002101ED0
01ED005E800CE0
07F705FD100CC0
0DE13FF6000E90
4F71DDE1003F50
9E1AABB0009D00
DA4D1D8002F500
F6C40E700C9000
EC900D92BA0000
8D1005ED600000
ENDCHAR
STARTCHAR wdieresis
ENCODING 7813
SWIDTH 750 0
DWIDTH 11 0
BBX 11 11 0 0
BITMAP
0000AE18E300
0000BC09D100
000000000000
000000000000
07E501607E20
02F60AD04F40
05F14F702F20
0BA1DF105C00
2F49CC00C400
6FA78D2A8000
5E503ED60000
ENDCHAR
STARTCHAR Ygrave
ENCODING 7922
SWIDTH 580 0
DWIDTH 8 0
BBX 10 18 0 -4
BITMAP
0000042000
00000E9000
000005D400
004E7000B8
001F9003F5
005F400BD0
00BE003F80
02F800AF30
08F203FD00
0EA00AF700
5F404DF200
9E00B9C000
BC094E6000
5EA37D0000
0001E50000
000BA00000
00AC100000
2C91000000
ENDCHAR
STARTCHAR ygrave
ENCODING 7923
SWIDTH 549 0
DWIDTH 8 0
BBX 8 16 0 -5
BITMAP
0000B800
0000E800
00007B00
00000400
03E700A9
01F804F6
06F30CF1
0DC05FB0
4F61CF60
8F1A7F10
5E92AA00
0002F300
000AA000
008D1000
1CC20000
01000000
ENDCHAR
STARTCHAR endash
ENCODING 8211
SWIDTH 751 0
DWIDTH 11 0
BBX 9 1 1 4
BITMAP
7CCCCCCC40
ENDCHAR
STARTCHAR emdash
ENCODING 8212
SWIDTH 1066 0
DWIDTH 15 0
BBX 13 1 1 4
BITMAP
6CCCCCCCCCCCA0
ENDCHAR
STARTCHAR quoteleft
ENCODING 8216
SWIDTH 268 0
DWIDTH 4 0
BBX 3 4 2 8
BITMAP
0520
8A00
F600
D800
ENDCHAR
STARTCHAR quoteright
ENCODING 8217
SWIDTH 268 0
DWIDTH 4 0
BBX 3 4 2 8
BITMAP
1710
3F60
1F30
9600
ENDCHAR
STARTCHAR quotesinglbase
ENCODING 8218
SWIDTH 268 0
DWIDTH 4 0
BBX 3 4 0 -2
BITMAP
1710
3F60
1F30
9600
ENDCHAR
STARTCHAR quotedblleft
ENCODING 8220
SWIDTH 485 0
DWIDTH 7 0
BBX 6 4 2 8
BITMAP
034052
4C1890
D82F40
C92E50
ENDCHAR
STARTCHAR quotedblright
ENCODING 8221
SWIDTH 480 0
DWIDTH 7 0
BBX 6 4 2 8
BITMAP
063161
0E94F5
0E53E2
961B40
ENDCHAR
STARTCHAR quotedblbase
ENCODING 8222
SWIDTH 463 0
DWIDTH 6 0
BBX 6 4 0 -2
BITMAP
171260
3F67F2
1F34E0
961B40
ENDCHAR
STARTCHAR dagger
ENCODING 8224
SWIDTH 488 0
DWIDTH 7 0
BBX 6 11 1 0
BITMAP
000D80
002F90
358FA8
29EF95
00DC00
02F700
06F100
0BA000
1F4000
5B0000
920000
ENDCHAR
STARTCHAR daggerdbl
ENCODING 8225
SWIDTH 488 0
DWIDTH 7 0
BBX 6 11 1 0
BITMAP
000D80
003F90
48AFBA
16DF73
00EB00
03F620
BEFE80
0C9000
1F2000
6A0000
920000
ENDCHAR
STARTCHAR bullet
ENCODING 8226
SWIDTH 437 0
DWIDTH 6 0
BBX 4 4 1 2
BITMAP
1BE7
6FFD
3FF8
0230
ENDCHAR
STARTCHAR ellipsis
ENCODING 8230
SWIDTH 810 0
DWIDTH 11 0
BBX 11 3 0 -1
BITMAP
7E60AE30DD10
7F50BE20DD00
010001000000
ENDCHAR
STARTCHAR perthousand
ENCODING 8240
SWIDTH 1184 0
DWIDTH 17 0
BBX 15 11 1 0
BITMAP
08DC100970000000
7E1D706D10000000
D81E62E500000000
D67E1AA000000000
5CB35E1000000000
0001E60000000000
0009B07CA106BB10
004E27D1E55E2C70
00D70E81F6CA0E80
08C00E57E1D75F20
1D2007DC306DD500
ENDCHAR
STARTCHAR guilsinglleft
ENCODING 8249
SWIDTH 413 0
DWIDTH 6 0
BBX 5 6 1 1
BITMAP
003B10
18D300
DC1000
8E2000
09D200
006200
ENDCHAR
STARTCHAR guilsinglright
ENCODING 8250
SWIDTH 416 0
DWIDTH 6 0
BBX 5 6 0 1
BITMAP
04D200
009D20
000CC0
008E50
0B9100
130000
ENDCHAR
STARTCHAR fraction
ENCODING 8260
SWIDTH 580 0
DWIDTH 8 0
BBX 8 12 0 0
BITMAP
00000015
000000B8
000005E1
00001D60
00008C00
0002E300
000A9000
004E1000
00C70000
06D00000
1E500000
79000000
ENDCHAR
STARTCHAR Euro
ENCODING 8364
SWIDTH 622 0
DWIDTH 9 0
BBX 10 11 0 0
BITMAP
000004CC90
00005F50D3
0003F703F4
000CD01EE1
004F600940
05EFCA2000
00FA000000
1BFDB60000
02F7000000
00DB019300
003CDD9100
ENDCHAR
STARTCHAR trademark
ENCODING 8482
SWIDTH 1084 0
DWIDTH 15 0
BBX 12 6 2 5
BITMAP
399875182065
57DA73BF47E9
02F105AF3BC6
08B00C5E94F4
0B805A3FB2F3
08B1B21D30D5
ENDCHAR
STARTCHAR Omega
ENCODING 8486
SWIDTH 839 0
DWIDTH 12 0
BBX 12 11 0 0
BITMAP
000169850000
005E944BD300
03F80000BE10
0AE100003F70
0EC000000FB0
0EB000000EB0
0CD000001F90
06F300006F30
00BB0001D900
272C6009A280
2EFEF24FEFD1
ENDCHAR
STARTCHAR partialdiff
ENCODING 8706
SWIDTH 580 0
DWIDTH 8 0
BBX 8 12 0 0
BITMAP
00001420
0003EAC6
0009C05D
0002304F
0029DB8E
02EC23FD
0CE201F9
4F8007F4
8F200DD0
9E007F50
6E04F800
1BDD6000
ENDCHAR
STARTCHAR Delta
ENCODING 8710
SWIDTH 663 0
DWIDTH 9 0
BBX 9 9 0 0
BITMAP
0000230000
0001EC0000
00099F4000
002D0BB000
00A504F300
03C000CA00
0B40005F20
4B00000D90
BDBBBBBEA0
ENDCHAR
STARTCHAR product
ENCODING 8719
SWIDTH 667 0
DWIDTH 9 0
BBX 8 13 1 -2
BITMAP
39999992
D91114F5
E90003F5
E90003F5
E90003F5
E90003F5
E90003F5
E90003F5
E90003F5
E90003F5
E90003F5
E70003F4
10000010
ENDCHAR
STARTCHAR summation
ENCODING 8721
SWIDTH 677 0
DWIDTH 9 0
BBX 9 13 0 -2
BITMAP
0299999960
0AF7444310
03FC000000
008F800000
001DF40000
0003FD0000
0000BC0000
0006E20000
004E400000
02E6000000
1D90000000
7FFFFFFE20
1444444200
ENDCHAR
STARTCHAR minus
ENCODING 8722
SWIDTH 617 0
DWIDTH 9 0
BBX 7 2 1 4
BITMAP
9AAAAA70
55555530
ENDCHAR
STARTCHAR radical
ENCODING 8730
SWIDTH 709 0
DWIDTH 10 0
BBX 11 14 0 0
BITMAP
000000000030
0000000002F0
000000000AD0
000000002F60
00000000AD00
00000003F400
0000000AB000
05D5003F2000
4DEA00A90000
119D03E10000
006F1B700000
002F7D000000
000EF4000000
000AA0000000
ENDCHAR
STARTCHAR infinity
ENCODING 8734
SWIDTH 681 0
DWIDTH 10 0
BBX 9 5 0 3
BITMAP
0021002200
09FE7AFE90
2E21EE40F0
2D2AFC37D0
08ED55DD40
ENDCHAR
STARTCHAR integral
ENCODING 8747
SWIDTH 583 0
DWIDTH 8 0
BBX 12 17 -2 -3
BITMAP
000000000110
000000005ED6
00000002E73B
0000000AC1CA
0000002F6192
0000007F1000
000000CB0000
000002F60000
000006F20000
00000BD00000
00001F800000
00004F300000
00009D000000
0AC1E8000000
2F47E1000000
1D6F60000000
05A500000000
ENDCHAR
STARTCHAR approxequal
ENCODING 8776
SWIDTH 671 0
DWIDTH 9 0
BBX 9 7 0 1
BITMAP
006DC30180
06C7EE5A70
09104DE800
0069400220
09CDF61C30
2B01CFF600
0100032000
ENDCHAR
STARTCHAR notequal
ENCODING 8800
SWIDTH 617 0
DWIDTH 9 0
BBX 7 10 1 0
BITMAP
00000450
00003E20
0111C710
AEEFFED0
002E3000
35BC5540
9CEAAA80
0D500000
8A000000
30000000
ENDCHAR
STARTCHAR lessequal
ENCODING 8804
SWIDTH 704 0
DWIDTH 10 0
BBX 8 10 0 0
BITMAP
00000003
000005D8
0003CC30
02AE6000
1EE20000
02AE7000
0003BD40
000005D8
00000001
0DFFFFFA
ENDCHAR
STARTCHAR greaterequal
ENCODING 8805
SWIDTH 617 0
DWIDTH 9 0
BBX 8 10 0 0
BITMAP
04000000
0AD50000
004CC400
00006EA2
000007F9
0004CC30
02AD5000
1D700000
00000000
1EFFFFF8
ENDCHAR
STARTCHAR lozenge
ENCODING 9674
SWIDTH 580 0
DWIDTH 8 0
BBX 8 11 0 0
BITMAP
00045000
001EE100
0099B900
03E12F30
0C6008C0
4D0001D4
1E4002E2
07C00B70
00C65D00
004ED400
000AA000
ENDCHAR
STARTCHAR commaaccent
ENCODING 63171
SWIDTH 250 0
DWIDTH 4 0
BBX 3 4 0 -4
BITMAP
0320
0DB0
0C60
3500
ENDCHAR
STARTCHAR ff
ENCODING 64256
SWIDTH 773 0
DWIDTH 11 0
BBX 14 14 -1 -2
BITMAP
000006CB102BC4
00004F3C70C77C
0000BB2F74F1CC
0001F75E29C1E5
0005F2000D8000
0009E0002F4000
02AEECCCDFCA10
038F5000D90000
007E0002F50000
00CA0007F10000
02F6000CB00000
07F1002F600000
0DA0008E100000
2C2000B6000000
ENDCHAR
STARTCHAR fi
ENCODING 64257
SWIDTH 623 0
DWIDTH 9 0
BBX 11 14 -1 -2
BITMAP
0000018CB300
00000CB16D00
00007E106F10
0000E800CD00
0005F2004300
004CFCBDE300
04DF8006F200
004F300BC000
008D002F6000
00D9007F1000
02F500BB0000
07E1007E6000
0D9000000000
3D2000000000
ENDCHAR
STARTCHAR fl
ENCODING 64258
SWIDTH 637 0
DWIDTH 9 0
BBX 11 14 -1 -2
BITMAP
0000019CC600
00000CC14F20
00007F203F30
0000EA007F00
0005F400BB00
0009E001F700
01AFEC76F200
018F400BC000
007E001F7000
00CA006F3000
02F6007E0000
07F1003EA100
0DA000000000
4E2000000000
ENDCHAR
STARTCHAR .notdef
ENCODING -1
SWIDTH 896 0
DWIDTH 13 0
BBX 14 14 0 -1
BITMAP
00002555555552
0001EFFFFFFFFB
0006FFFFFFFFF7
000BFE9FFA9FF3
001FF71F72BFD0
005FF7083DFF90
009FF902EFFF50
00DFFC07FFFF10
03FFE323FFFB00
07FE37B049F700
0BFC9FFA7EF200
1FFFFFFFFFC000
2FFFFFFFFF6000
01222222210000
ENDCHAR
ENDFONT
